<?xml version="1.0" encoding="utf-8"?>
<!-- Generator: Adobe Illustrator 25.0.0, SVG Export Plug-In . SVG Version: 6.00 Build 0)  -->
<svg version="1.1" id="Layer_1" xmlns="http://www.w3.org/2000/svg" xmlns:xlink="http://www.w3.org/1999/xlink" x="0px" y="0px"
	 viewBox="0 0 600 400" style="enable-background:new 0 0 600 400;" xml:space="preserve">
<style type="text/css">
	.st0{clip-path:url(#SVGID_2_);}
	.st1{clip-path:url(#SVGID_4_);fill:none;}
	.st2{clip-path:url(#SVGID_6_);enable-background:new    ;}
	.st3{fill:#FFFFFF;}
	.st4{font-family:'Arial-BoldMT';}
	.st5{font-size:22.2206px;}
	.st6{clip-path:url(#SVGID_8_);enable-background:new    ;}
	.st7{font-family:'ArialMT';}
	.st8{font-size:19.1905px;}
	.st9{clip-path:url(#SVGID_10_);enable-background:new    ;}
	.st10{clip-path:url(#SVGID_12_);}
	.st11{clip-path:url(#SVGID_14_);}
	.st12{fill:#BC6A11;}
	.st13{opacity:0.6;clip-path:url(#SVGID_16_);fill:#B2B2B2;enable-background:new    ;}
	.st14{fill:none;}
	.st15{opacity:0.6;fill:#FFFFFF;stroke:url(#SVGID_17_);stroke-width:0.8058;stroke-miterlimit:10;enable-background:new    ;}
	.st16{fill:url(#SVGID_18_);}
	.st17{fill:#FFA018;}
	.st18{fill:#C45C33;}
	.st19{fill:#F7772F;}
	.st20{fill:none;stroke:url(#SVGID_19_);stroke-width:0.8058;stroke-miterlimit:10;}
	.st21{fill:none;stroke:url(#SVGID_20_);stroke-width:0.8058;stroke-miterlimit:10;}
	.st22{clip-path:url(#SVGID_22_);}
	.st23{fill:url(#SVGID_23_);}
	.st24{fill:url(#SVGID_24_);}
	.st25{clip-path:url(#SVGID_26_);}
	.st26{fill:url(#SVGID_27_);}
	.st27{fill:url(#SVGID_28_);}
	.st28{clip-path:url(#SVGID_30_);}
	.st29{fill:url(#SVGID_31_);}
	.st30{fill:url(#SVGID_32_);}
	.st31{clip-path:url(#SVGID_34_);}
	.st32{fill:url(#SVGID_35_);}
	.st33{fill:url(#SVGID_36_);}
	.st34{clip-path:url(#SVGID_38_);}
	.st35{fill:url(#SVGID_39_);}
	.st36{fill:url(#SVGID_40_);}
	.st37{clip-path:url(#SVGID_42_);}
	.st38{fill:url(#SVGID_43_);}
	.st39{fill:url(#SVGID_44_);}
	.st40{clip-path:url(#SVGID_46_);}
	.st41{fill:url(#SVGID_47_);}
	.st42{fill:url(#SVGID_48_);}
	.st43{clip-path:url(#SVGID_50_);}
	.st44{fill:url(#SVGID_51_);}
	.st45{fill:url(#SVGID_52_);}
	.st46{clip-path:url(#SVGID_54_);}
	.st47{fill:url(#SVGID_55_);}
	.st48{fill:url(#SVGID_56_);}
	.st49{clip-path:url(#SVGID_58_);}
	.st50{fill:url(#SVGID_59_);}
	.st51{fill:url(#SVGID_60_);}
	.st52{clip-path:url(#SVGID_62_);}
	.st53{fill:url(#SVGID_63_);}
	.st54{fill:url(#SVGID_64_);}
	.st55{clip-path:url(#SVGID_66_);}
	.st56{fill:url(#SVGID_67_);}
	.st57{fill:url(#SVGID_68_);}
	.st58{clip-path:url(#SVGID_70_);fill:#994D08;}
	.st59{clip-path:url(#SVGID_72_);fill:url(#SVGID_73_);}
	.st60{fill:#FF9118;}
	.st61{fill:#161410;}
	.st62{font-size:25px;}
	.st63{font-family:'CenturyGothic-Bold';}
	.st64{font-size:18.5901px;}
</style>
<g>
	<g>
		<defs>
			<rect id="SVGID_1_" width="600" height="400"/>
		</defs>
		<clipPath id="SVGID_2_">
			<use xlink:href="#SVGID_1_"  style="overflow:visible;"/>
		</clipPath>
		<g class="st0">
			<g>
				<g>
					<defs>
						<rect id="SVGID_3_" width="600" height="400"/>
					</defs>
					<clipPath id="SVGID_4_">
						<use xlink:href="#SVGID_3_"  style="overflow:visible;"/>
					</clipPath>
					<rect x="10" y="11.6" class="st1" width="584.7" height="109"/>
				</g>
			</g>
			<g>
				<g>
					<defs>
						<rect id="SVGID_5_" width="600" height="400"/>
					</defs>
					<clipPath id="SVGID_6_">
						<use xlink:href="#SVGID_5_"  style="overflow:visible;"/>
					</clipPath>
					<g class="st2">
						<text transform="matrix(1 0 0 1 236.9897 27.5518)" class="st3 st4 st5">Μην χάσετε!</text>
					</g>
				</g>
			</g>
			<g>
				<g>
					<defs>
						<rect id="SVGID_7_" width="600" height="400"/>
					</defs>
					<clipPath id="SVGID_8_">
						<use xlink:href="#SVGID_7_"  style="overflow:visible;"/>
					</clipPath>
					<g class="st6">
						<text transform="matrix(1 0 0 1 20.1367 53.8125)" class="st3 st7 st8">Αυτή είναι η τελευταία σας ευκαιρία να εισέλθετε στην επανάσταση</text>
					</g>
				</g>
			</g>
			<g>
				<g>
					<defs>
						<rect id="SVGID_9_" width="600" height="400"/>
					</defs>
					<clipPath id="SVGID_10_">
						<use xlink:href="#SVGID_9_"  style="overflow:visible;"/>
					</clipPath>
					<g class="st9">
						<text transform="matrix(1 0 0 1 221.4355 80.0728)" class="st3 st4 st5">BITCOIN CODE</text>
					</g>
				</g>
			</g>
			<g>
				<g>
					<defs>
						<rect id="SVGID_11_" width="600" height="400"/>
					</defs>
					<clipPath id="SVGID_12_">
						<use xlink:href="#SVGID_11_"  style="overflow:visible;"/>
					</clipPath>
					<g class="st10">
						<g>
							<g>
								<defs>
									<rect id="SVGID_13_" x="-2.7" y="76.5" width="604.3" height="348.1"/>
								</defs>
								<clipPath id="SVGID_14_">
									<use xlink:href="#SVGID_13_"  style="overflow:visible;"/>
								</clipPath>
								<g class="st11">
									<g>
										<path class="st12" d="M158.8,117.9c-1.2,0.4-1.6-0.6-2.7-0.3c-0.8,0.2-0.8-0.4-1.5,0.1c-0.2,0.2-0.3,0.4-0.2,0.7
											c0.5,1,0.9,2.5,1.8,3.2c0.1,0.1,1.7,1.2,1.3,0.5c0.2,0.3,0.8,0.1,1.1,0c-0.2,0.1-0.6,0.4-1.3,0.9
											c-1.7,1.2-3.6,1.3-5.7,1.6c-2,0.3-3.3,0.3-4.8,1.7c-0.5,0.5-0.9,1.7-1.2,1.9s-0.3,0.7,0,0.9c3,1.6,4.5,2.8,7.8,2.8
											c0.2,0,0.4,0,0.5,0c-2,0.2-3.6,0.9-5.7,0.6c-0.4-0.1-0.9,0.5-0.5,0.8c1.6,1.3,6.7,2.3,2.9,3.8c-0.5,0.2-0.5,0.8,0,1
											c1.8,0.7,5.2-0.7,7.1-1.1c2.9-0.6,5.2-0.7,8,0.4c2.7,1,7.2,5.9,8,9.3c0.6,2.2-1,3.2-0.9,4.8c0,0.2,0.1,0.4,0.4,0.5
											c3.1,0.9,7.1,0.1,9.3,2.9c0.3,0.4,0.4,0.6,0.4,0.7c-0.4,0-0.7,0-1.1,0c-0.9-0.3-2.1-0.8-3-1c-0.6-0.1-0.9,0.7-0.3,1
											c2.4,0.9,3.8,1.9,4.6,4.2c-1.5,0.4-3.2,0.9-4.5,1.3c-0.2,0-0.3,0.2-0.3,0.3c-0.8,3.2-1.9,1.8-1.3,4.5
											c0.1,0.6,2.7,3.8,1.7,1.9c1.6,0.9,2,1.5,1.3,1.8c-0.2,0.1-0.4,0.2-0.6,0.3c0.1,0.2-0.6,0.8-0.4,1.2c1.1,2.5,3.4,2.6,5,4.4
											c0.3,0.3,0.4,0.4,0.5,0.4c0.1,0.5,0.1,1.3,0.3,2.3c0,0.3-0.7,1.2-0.4,1.7c0.6,0.9,1.5,0.8,2.3,1.4
											c0.8,0.6,1.3,1.8,2.2,2.2c1.6,0.7,4.2-0.6,4.8,1.4c0,0.2,0.2,0.3,0.3,0.3c1.9,0.4,6.4-0.2,4.7-3.4
											c-0.1-0.2-0.3-0.2-0.4-0.2c-1.6,0,4.3-2.7,4.6-3.6c0.3-0.8-0.1-1.1,0-1.9c0.4-2.3-2-0.3-0.6-3c0.6-1.2,3-2,4.2-2.4
											c2.3-0.7,2.8-0.6,4.9-2.3c3-2.4,5.3-4.6,9-5.7c2.9-0.9,5.9-1.4,8.7-2.5c2.4-0.9,4.6-2.3,6.7-3.4c0.5-0.2,0.2-0.9-0.3-0.9
											c-2.4-0.2-4.9,0.1-7.3-0.3c-0.6-0.1-1.3,0.4-1.6,0.7l0,0l0,0c0.2-0.2,0.6-0.7,1.2-1.5c0.2-0.3,0-0.6-0.3-0.7
											c-0.3-0.1,0.2,0,1-0.5c0.2-0.2,0.3-0.4,0.2-0.7c0.5,1,4.4,3.3,6.7,2.2c0.2-0.1,0.3-0.4,0.2-0.6c-0.3-1.4,0-1.2,0.6-1.6
											c0.3-0.2,0.3-0.6,0-0.9c-1.4-0.9-3-1.2-4.4-2.1c-0.8-0.5-1.5-0.8-1.9-1.8c-0.8-2.2,1.6,2.4,1.6,0.8c0,0.3,0.2,0.5,0.5,0.5
											c1.1,0,2.3,0,3.4-0.2c0.2,0,0.3-0.2,0.3-0.3c0.1,0,0.1,0,0.3,0c0.5,0,0.6-0.7,0.3-0.9c-0.5-0.4-1.9-1.3-3.2-1.9
											c0.2,0.1,0.4,0.1,0.5,0.1c1.6,0.2,3.8,0,5.3-0.6c0.3-0.1,0.3-0.5,0.2-0.7c-0.3-0.7-0.7-1.2-1.2-1.5
											c0.8-0.2,2.1-0.7,2.4-0.5c0.5,0.4,1-0.5,0.5-0.9c-0.3-0.2-1.2-0.6-2-1c0.1,0,0.2-0.1,0.2-0.2c0.5-1.2,2.5-3.2,2.1-4.5
											c-0.1-0.4-0.2-0.4-0.4-0.7c0,0,0,0-0.1,0c0.1,0,0.1-0.1,0.2-0.2c0.7-1.2,2.1-1.8,2.2-3.2c0-0.3-0.3-0.5-0.5-0.5
											c-0.8-0.1-2-0.3-2.5,0.6c0,0,0,0,0,0.1c0,0-0.1,0-0.1-0.1c-0.2-0.8-0.7-2.3-1-2.6c0,0,0.2-0.5,0.2-0.4
											c0.1-0.3-0.2-0.7-0.5-0.6c-1,0.1-2.1,0.2-3.1,0.4c-0.2,0-0.4,0.1-0.5,0.4c0.4-1.2,1.5-2.5,2.9-3.7c0.6-0.3,1-0.7,1.4-1.1
											c1.5-1.1,3.1-2,4.2-2.4c0.3-0.1,0.5-0.6,0.2-0.8c-0.5-0.5-0.6-0.2-1.3-0.4c0.9,0,1.7-0.1,2.3-0.6c0.3-0.2,0.1-0.7-0.2-0.8
											c-0.7-0.2-1.4-0.3-2.2-0.4c1.1-0.1,2.1-0.3,2.9-0.6c2-0.6,4.3-1.5,5.7-3.3c0.1-0.1,0.1-0.4,0-0.5
											c-1.2-1.6-5.4-2.3-7.1-0.7c-1.9,0.3-4.2,0.4-5.9,0.9c-1,0.3-0.8,0.5-0.8,0.8c0,0,0,0-0.1,0c0-0.1,0-0.1-0.1-0.2
											c0,0,0,0,0-0.1c-0.1-0.2-0.4-0.3-0.6-0.2c0.2-0.2,0.3-0.3,0.5-0.5c0.3-0.3,0.1-0.8-0.4-0.8c-1.8-0.1-3.2,2.1-4.9,2.5
											c-2,0.4,1.6-2.2,2.6-2.7c0.4-0.2,0.2-0.9-0.3-0.9c-2.7,0.1-5.3,1-7.9,1.6c0.1-0.1,0.2-0.1,0.3-0.2
											c0.3-0.2,0.3-0.5,0.1-0.8c-0.5-0.5-1.2-0.8-2.2-1c3-0.2,10.4-0.8,10.7-2.7c0-0.3-0.1-0.5-0.3-0.6c-1.3-0.4-4-0.8-4.4-0.1
											c0.1-0.2,0.1-0.5-0.1-0.6c-0.4-0.3-1.1-0.6-1.9-0.7h0.1c0.5-0.1,0.5-0.8,0-1c-5-1.2-11.4-0.6-16.7-0.9
											c-2.2-0.1-3.6-0.1-5.3,1.1c-1.2,0.8-1.2,1.2-2,1.3c-0.6,0.1-2.6-0.6-3.4-0.7c-0.8-0.1-7.4-1.2-7.9,0.5
											c-0.1,0.3,0.1,0.5,0.3,0.6c1.7,0.5,3.5,0.8,5.2,1.1c-0.5-0.1-1-0.1-1.4,0c-1.4,0.3-1.5,0.5-1.6,0.9c0,0.1-0.1,0.1-0.1,0.2
											c0,0.2-0.1,0.3-0.1,0.4c-0.1,0.2-0.2,0.4-0.4,0.6c-1.9,2.2-7.4,0.9-8.5-1.8c-0.1-0.3-0.5-0.3-0.7-0.2
											c-1.2,0.6-0.8,0.8-1.6,1.9c-1,1.4,1.9,1-1.1,1.9c-0.8,0.3-2.8-1-3.4-1.4c-0.2-0.1-0.6,0-0.7,0.2c-0.2,0.4-0.6,2.6-0.5,2.5
											c-1.3,0.8-0.9-2.1-1.9-2.8c-1.6-1-3.3-0.5-5.2,0c-0.9,0.2-1.4,0.6-1.9,0.9h-0.1c-0.7,0.3-0.6,0.4-0.8,0.8
											c-0.1,0.1-0.3,0.2-0.5,0.3c-1,0.6-5.6-0.2-7.1,1.7C160.6,116.7,159.8,117.6,158.8,117.9z M146.4,129
											C146.5,129,146.5,129,146.4,129C146.5,129,146.5,129,146.4,129C146.5,129,146.5,129,146.4,129z M240.1,135.2
											C240.1,135.2,240.2,135.2,240.1,135.2c-0.7-0.1-1.6-0.2-1.9-0.3C235.5,134.1,239.5,133.7,240.1,135.2z M242.7,114.8
											c-0.1,0-0.2,0.1-0.4,0.1c-0.6,0.2-1.1,0.3-1.5,0.3C241.4,115.1,242,115,242.7,114.8z M240.8,120.7
											c-1.5-0.2-3.2-0.3-3.3-0.3C238.3,120.2,239.6,120.4,240.8,120.7z M214.8,108.3c0.3,0,0.7,0,1.1,0c-1,0.1-1.7,0.2-2.2,0.2
											c-1.1,0.1-2.1,0.1-3.2,0.1C208,108.5,214.1,108.3,214.8,108.3z"/>
										<path class="st12" d="M240.5,321.4c0-0.1,0-0.2,0-0.2c0-0.1-0.1-0.2-0.1-0.3c-1.1-2.3-4.3-2.2-6.4-3.5
											c-1.1-0.7-1.8-1.6-3.1-2c-1.4-0.5-3.7,0.3-4.9-0.6c-0.1-0.1-0.4-0.1-0.5,0c-1.2,0.7-2.5-1.1-3.6-0.7
											c-0.3,0.1-0.7,0.6-0.9,0.6c-0.3,0-0.5,0.1-0.6,0.1c-0.2-0.4,0-1.3-0.3-1.9c-0.1-0.2-2.1-0.9-2.1-1.1s-0.1-0.4-0.4-0.5
											c-2.9-1-4.7-2.1-6.5-0.7c0.1-0.3,0.1-0.7,0.1-1.1c0-0.3-0.2-0.5-0.5-0.5c1.8-0.1-2.4-1.2-4.2-1.5c0.4-0.5,0.7-1.1,1-1.8
											c0.1-0.3,0.1-0.5-0.2-0.7c-1.4-1-1.9-2.5-3.1-3.8c-1.4-1.6-2.2-1.7-3.6-2c0.1-0.1,0.2-0.2,0.2-0.3c0.1-0.1,0.1-0.4,0-0.5
											s-0.2-0.2-0.3-0.3c0-0.3,0-0.5-0.2-0.8c-0.5-1.1-1.4-1.2-2.5-1.6c0-0.1-0.1-0.1-0.2-0.2c-0.8-0.4-1.6-0.9-2.5-0.7
											c-0.1,0-0.2,0.1-0.3,0.2c0,0-0.1,0-0.1-0.1c-0.9-0.3-1.5,0.5-2.3,0.6c-0.3,0-2.6-0.2-2.9-0.4c-0.2-0.6-0.7-1-1.4-1.4
											c-0.6-0.3-1.6-0.2-2-0.5c-0.1,0-0.1-0.1-0.1-0.1c0.1,0.1,0.4,0.2,0.3-0.4c-0.4-1.4-1.4-2-2.8-2.6
											c-1.2-0.6-1.4-1.4-2.4-2.2c-1.1-0.8-2-0.8-3.1-1.5c-2.5-1.6-2.9-3.7-6.7-2.2c-0.2,0.1-0.4,0.2-0.4,0.5
											c0,0.6-2.5-0.1-4.4-0.5c0.4-0.4,0.5-0.8,0.5-1.3s-0.1-0.9-0.1-1.4s0.1-0.5,0.3-0.8c0.5-0.8,0.7-1.8,0.4-2.8
											s-0.9-1.3-1.7-1.8c-0.1-0.1-0.2-0.1-0.4-0.1l0,0l0,0c-0.1,0-0.2,0.1-0.3,0.2c-0.6,1.2-0.4,2.2,0.6,3.1l0.1,0.1l0,0
											c-0.2,0.3-0.4,0.9-0.6,1.3c-0.2,0.6-0.2,1.3-0.5,1.9c-0.2,0.5-0.5,0.8-0.8,1.1c-4.7-0.5-0.5-0.5-2.3-1
											c-1.9-0.6-6.4-1.9-8,0.3c-0.1,0.1-0.2,0.3-0.2,0.4c-0.1-0.3-0.3-0.6-0.5-0.9c0-0.1,0.1-0.1,0.1-0.2c0.8-1,2.1-1,1.1-2.7
											c-0.1-0.2-0.3-0.3-0.6-0.2c-0.4,0.1-2.7,1.3-3.1,1.2c-0.2-0.1-0.5,0-0.6,0.2c-0.6,1.1-1.5,1-2.6,1c-0.2,0-0.3,0.1-0.4,0.2
											c0-0.1-2.3,1-2.4,1.1c-1.1,1.1-0.8,2.6-1.5,3.5c-0.5,0.6-1.6,1-2.2,1.4c-0.3,0.2-0.4,0.5-0.4,0.7
											c-0.1-0.2-0.3-0.4-0.5-0.6c-1.1-1.1-2.1-2.2-3.7-2.2c-1.1,0-2.4,0.4-3.5,0.7c-0.5,0.1-0.9,0.3-1.4,0.4
											c-1.4,0.3-2,0.5-2.7-0.6c-0.2-0.3-0.6-0.3-0.8,0c0-0.1,0-0.2-0.1-0.3c0-0.2-0.1-0.4-0.4-0.5c-0.6-0.2-0.7-0.1-1.1,0.2
											c-0.3,0-0.4,0-0.6,0.1c0,0,0-0.1-0.1-0.1c-0.3-0.3-0.9-0.6-1.2-0.9c-0.3-0.2-0.6-0.4-0.8-0.6c-0.1-0.1-0.1-0.1-0.2-0.1
											c0-0.3,0-0.8,0-1.1c0.1-0.1,0.3-0.2,0.3-0.3c0.3-0.2,0.7-0.4,0.9-0.6c0.7-0.7,1.2-1.5,1.5-2.5c0.2-0.1,0.4-0.1,0.6-0.2
											s0.3-0.2,0.3-0.4c0,0,0,0,0-0.1c0.1-1.1-0.2-2.3-1.3-2.8c-0.6-0.3-1.2-0.1-2-0.3c-1.1-0.3-3.1-1.3-3.2,0.3
											c-0.7,0.2-1.4,0.3-2,0.6c-0.1,0-0.1,0-0.2,0c0-0.1-0.1-0.1-0.1-0.2s0-0.3-0.1-0.4c0.5-0.9,0.5-2,1.3-4
											c0.7-1.5,3.3-3.6,2.9-5.1c-0.1-0.2-0.4-0.4-0.6-0.3h-0.1c-0.1-0.2-0.2-0.3-0.4-0.3c-1.7-0.2-5.3-0.3-6.5,1.1
											c-0.6,0.7-0.1,2.3-0.5,2.8c-0.8,1-4.5,1.6-5.7,1.4c-0.4-0.1-0.8-0.2-1.1-0.3c-0.1-0.1-0.2-0.1-0.4-0.1
											c-5-2-4.4-8.5-3-12.9c0-0.1,0.1-0.1,0.1-0.2s0-0.1,0-0.2s0-0.1,0.1-0.2c0-0.1,0-0.3-0.1-0.4c-0.2-0.7-0.8-1.1-0.8-1.4
											c0.3-2.3,3.6-4,6.6-3.9c2.7,0.1,5,1.2,7.6,0.9c0.3,0,0.5-0.3,0.5-0.6c-0.7-3.6,5,0.1,6,1.3c0.2,0.2,0.7,0.2,0.8-0.1
											c2.3-5.2,3.3,7.4,7.7,5.1c0.1-0.1,0.3-0.3,0.2-0.4c-0.1-2-1.5-3.9-2-5.9c-0.6-2.4-0.7-2.8,1.3-5.1c1.8-2,4.2-3,6.1-4.7
											c1.2-1.1,1.7-2.2,2.7-3.5c0.2-0.2,0.2-0.4,0.1-0.6c-0.8-1.8-3-4.3-0.2-2.1c0.2,0.2,0.6,0.2,0.8-0.1
											c0.3-0.6,0.1-1.1,0.3-1.7c0.1-0.4,0-0.8-0.3-1c0.1,0,0.2,0.1,0.3,0.1c0.3,0.1,0.6-0.2,0.6-0.5c0.3-5.2,4.9-3.3,8.2-5.4
											c0.2-0.1,0.3-0.4,0.2-0.7c-0.3-0.6-2-1.9-1.9-2.3c0.2-1.4,4.4-2.8,5.4-3.1h0.1c0,0,0,0,0.1,0l0,0c1.5-0.7,3-1.2,4.5-1.5
											c-1.1,0.8-2.3,1.1-2.4,2.8c0,0.2,0.1,0.4,0.2,0.4c2.8,1.3,3.1-1.4,5.6-2c2.2-0.4,4.7-0.8,6.5-2.2c0.3-0.3,0.1-0.7-0.2-0.8
											c-1-0.4-0.9-1.7-2.1-1.9c-1.3-0.2-1.8,1.2-2.3,2.3c-0.8-0.5-0.5-0.3-0.1-1.3c0.2-0.6,0.7-0.8,0.5-1.4
											c-0.1-0.2-0.3-0.4-0.5-0.4c-0.5,0-0.9,0.3-1.4,0.5c-0.4,0.1-0.8,0.4-1.3,0.4c-0.7-0.2-1.3-0.5-2-0.7
											c0.1-0.2,0.3-0.5,0.4-0.7c0.5-1.6,1.7-1.5,0.6-3.2c-1.4-2.3-5.5,0.5-7.3,1.2c-0.8,0.3-1.6,0.7-2.4,1.1
											c1.4-1.4,2.9-2.7,4.7-3.7c4-2.2,8.6-1.1,13.1-1.4c0.5,0,0.7-0.6,0.3-0.9c-0.9-0.6,5.7-1.5,6.5-3v-0.1c0,0,0,0,0-0.1
											c0,0,0,0,0-0.1V205c-0.3-1.6-0.4-3.7-2-4.4c-1.8-0.8-4.2,0.9-0.7-1.2c0.4-0.2,0.3-0.8-0.1-0.9c-5.3-2-5.7-4.6-8.9-8.8
											c-0.7-1-1.5-1.3-2-2.3c-0.9-1.6-0.6-2.3-1.9-3.8c-0.2-0.3-0.6-0.1-0.8,0.1c-1.3,1.8-3.8,6.3-6.8,3.6
											c-1.2-1.1-0.8-3.2-0.8-4.8c0-0.2-0.1-0.4-0.2-0.4c-1.2-0.5-3.9-1.3-3.3-2.4c0.1-0.2,0.1-0.4-0.1-0.6
											c-0.6-0.8-1.6-0.3-2.5-0.5c-1.9-0.3-5.4-1.8-7.3-1.4c-5.1,1.1-1.4,7.2-4.1,10.4c-0.2,0.2-0.2,0.5,0,0.7
											c1.4,1.3,3.3,2.1,3.8,4.1c1,4.1-3.3,4.9-6.1,6.3c-0.2,0.1-0.3,0.4-0.2,0.6c0.2,0.8,3.3,4.9,2.4,6.2
											c-0.1,0.1-0.3,0.2-0.5,0.3c-0.3,0.1-0.6,0.1-1,0c-1.7-0.2-2.4-1.7-2.7-3.4c0.1,0.1,0.2,0.3,0.4,0.4
											c0.2,0.2,0.4,0.7,0.8,0.8c0.7,0.3,1.3-0.5,1.4-1.1c0.2-0.6-0.3-1-0.8-1.4c-0.1-0.1-0.2-0.1-0.4-0.1h-0.1
											c-0.4,0.1-1.1,0.3-1.3,0.7c-0.2-1.9,0-4.1-0.1-5.2c0-0.2-0.1-0.4-0.4-0.5c-2.3-0.7-4.8,0.4-6.9-0.4
											c-2.1-0.7-3.7-2.8-5.9-3.4c-0.8-0.2-2,0-2.7-0.3c-2.7-0.9-0.8-0.5-2.1-2.6c-0.7-1.1-1.4-1.1-2.2-1.7
											c-0.6-0.4-0.8,0.7-1.7-0.6c-1.1-1.5,0.1-4.1,1.1-5.4c1.6-1.9,4.8-2.2,6.2-4.1c0.2-0.3,0-1.3,0.1-1.4
											c0.8-0.9,0.8-0.4,2.3-1.3c1.4-0.8,1.9-0.9,2.2-1.6c0,0.3-0.1,0.6-0.1,0.9h-0.1c-0.2,0.1-0.4,0.3-0.4,0.5
											c0.1,0.7,0.6,1.2,1,1.7c0.1,0.1,0.3,0.2,0.5,0.1c1.4-0.5,1.6,0.3,2,1.6c0.1,0.3,0.4,0.5,0.7,0.3c0.9-0.5,1.8-1,2.7-1.5
											c0.2-0.1,0.3-0.4,0.2-0.6c-0.2-0.7,0.3-2,0.8-2c0.3,0,0.8,0.8,1.1,1c0.6,0.4,1.4,0.7,2.1,0.7c1.4,0,3.3-1.2,1.9-2.7
											c-0.5-0.5-1-0.4-1.7-0.4c-1.2,0-1.9-0.1-2.8-0.9c-0.6-0.5-1.1-1-1.7-1.4c-0.7-0.5-2.4-1.8-3.7-1.8
											c0.1-0.1,0.1-0.1,0.2-0.2c0.2-0.2,0.2-0.4,0.1-0.6c-1-1.8,2.7,1.5,3.6,1.4c1.6,0,1.6-1,2.7-2.2c1.1-1.2,2.1-0.6,2.2-2.8
											c0.1-2.4-2.4-2.5,0-4.4c0.2-0.2,0.3-0.3,0.2-0.6v-0.1c0.2,0.3,0.6,0.5,0.9,0.7c0.3,0.2,0.6,0.4,0.9,0.5
											c0.4,0.2,0.8-0.1,1.2-0.3c0.4-0.3,0.8-0.5,0.9-1c0.1-0.5,0.1-0.9-0.1-1.3c-0.2-0.4-0.4-0.8-0.8-0.9
											c-0.4-0.1-0.9-0.2-1.4-0.3c-0.1,0-0.2,0-0.3,0s-0.2,0-0.2,0.1c-0.5,0.4-1.1,1-1.2,1.7c-0.3-0.6-0.7-1-1.3-1.3
											c0.3,0,0.6,0,1-0.1c0.3-0.1,0.7-0.7,0.8-0.7s-0.1-1.1-0.1-1.1c0.4,0,1.8,1.3,2.3,1.5c0.5,0.3,1-0.4,0.6-0.8
											c-0.1-0.1-0.2-0.2-0.2-0.2c0.1,0,0.2,0,0.4,0l0,0c0.9,0.5,2.8,1.8,3,2c0.2,0.3,0,1.2,0.3,1.4c0.1,0.1,0.7,0.9,0.9,1.1
											c0.1,0.1,0.3,0.2,0.4,0.3c-0.4-0.1-0.9-0.1-1.2-0.2c0-0.1-0.1-0.2-0.2-0.2c-0.1-0.2-0.3-0.4-0.5-0.4
											c-0.2-0.1-0.4,0-0.5,0.1c-0.4,0.4,0,1.1,0,1.5s-0.1,0.6,0.1,0.9c0,0.1,0.1,0.1,0.1,0.2c0.4,0.3,0.6,0.6,0.7,1.1
											c0.1,0.2,0.1,0.4,0.3,0.5c0.6,0.4,1.8-0.5,2.4-0.6c0.4-0.1,0.9,0,1.2-0.5c0.2-0.4,0.3-1,0.2-1.4c0.1-0.2,0.2-0.5-0.1-0.7
											c-0.3-0.3-1.1-0.3-1.6-0.3c-0.1-0.3-0.2-0.5,0.1-0.4c0.2,0.1,1.6,0.5,1.9,0.6c0,0,2.1,1.2,1.9,1c1.6,1.3,1.6,0.6,1.1,2.5
											c0.2-0.7-2.1,3.4-1.5,2.7c-0.5,0.7,0.3,0.6-1,1.5c-1,0.7-4.4,0.3-4.9-0.2c-0.2-0.2-0.4-0.2-0.6-0.1
											c-1,0.5-1.8,1.4-2.2,2.5c-0.1,0.1,0,0.4,0.1,0.5c1.9,1.5,1.8,1.8,4,1.9c3,0.2,4.1-0.2,6.8,1.8c3.4,2.5,7.1,3.1,11.3,3.9
											c0.2,0,0.4,0,0.6-0.2c0.4-0.6,0.4-0.5,0.4-1.2c0-0.1,0-0.1-0.1-0.2c0.4,0.3,0.8,0.6,1.2,0.9c0.3,0.2,0.7,0.2,0.8-0.2
											c0.7-2.1,1.5-2.9,0.2-4.6c-0.8-1.1-4.7-2.3-5.7-4.3v-0.1c-0.2-0.4-0.3-0.9-0.1-1.4c0,0.1,6.3,3.9,8,3.3
											c1.2-0.5,3.5-3.2,3.5-4.7c0.1-0.2,0-0.3-0.1-0.5c-3-2.4-6.4-3.7-9.6-5.7c-2.7-1.7,0.4,0.4,0.7-1.7c0-0.2-0.1-0.4-0.2-0.4
											c-1.3-0.3-2-1.1-2.2-2.6c0.2-0.1,0.3-0.3,0.2-0.6v-0.1c0-0.2-0.2-0.3-0.3-0.3c-1.2-0.2-1.9-1.1-3-1.2
											c-1.1-0.1-4.2,1.8-2.8-0.1c0.1-0.1,0.1-0.4,0-0.5c-1.4-1.9-1.9-0.1-3.5-0.7c-0.8-0.3-2.4-2.3-3-3.7c0.6,0,0.7-0.8,0.1-1
											h-0.1l0,0l0,0c-0.2,0-0.5,0-0.7,0H141c-1.2,0-2.3-0.3-3.3-0.3c0.7-0.4,1.1-1,0.8-1.6c-0.3-0.8-1.1-0.7-1.7-0.9
											c-1.2-0.4-2.1-0.8-3.3-1.1c-1.1-0.3-1.4,0.1-2.3,0.7c-0.5,0.3-0.8,0.6-1,1c-1.5-1.8-4.4-0.8-7.3,0.3
											c0.6-0.6,1.2-1.2,1.3-1.7c0.1-0.3-0.1-0.6-0.5-0.6c-2.6,0-6.1,1-8.1,2.9c-1,0.9-2.9,6.4-1.1,6.1c-0.2,0-0.3,0.2-0.3,0.3
											s0,0.2-0.1,0.3c-0.1,0.2,0,0.4,0.2,0.6c1.9,1.3,5.9,2.5,7.2,4.4c0.2,0.2,0.4,0.3,0.7,0.2c0.5-0.3,1-0.5,1.5-0.6
											c-0.1,0.3-0.2,0.6-0.3,1c-0.2,0.3-0.3,0.5-0.3,0.6c0,0,0,0.1,0,0.2c-0.1,0.3-0.2,0.6-0.4,0.9c0.3,0.8,0.1,1.4-0.7,1.9
											c-0.2-0.3-0.5-0.5-0.8-0.7c-0.1,0.1-0.7-0.3-0.9-0.2c-0.3,0.3-0.7,0.4-1,0.9s0.8,2,0.9,1.9c-1.2,1.1-2.3-1-1.4-2.6
											c0.1-0.2,0.1-0.5-0.1-0.6c-0.1-0.1-0.2-0.2-0.3-0.3c-0.1,0.1-0.2,0.3-0.3,0.4l0,0c0,0-0.5-0.5-1-0.9c0.3,0,0.6,0,0.8,0
											c-0.7-0.6-1.4-1-2.3-1c-0.2,0-0.4,0.2-0.5,0.4c-1,3.4-0.1,0-1.5-1.4c-0.5-0.5-1-0.7-1.5-0.8c0-0.1,0-0.1,0-0.2
											c0.1-2.7-1.7-4.3-3.6-5.9c0,0-0.6-0.4-0.9-0.4c0.4-0.3,1.1-1,1-0.9c1-0.8,1.9-1.5,3.3-1.6c0.2,0,0.4-0.1,0.4-0.2
											c0.8-1.8,1.9-2.8,3.4-4.1c0.3-0.2,0.2-0.8-0.2-0.8c-1.9-0.3-3.7-0.5-5.7-0.6c-0.6,0-1.1-0.1-1.5-0.2
											c0.3-0.3,0.6-0.8,0.8-1.2c0.4-0.6,0.5-1.1,0.4-1.6c0.8,1.3,1.6,2.5,1.8,2.7c1.1,0.8,2.7,0.3,4,0.1c3-0.3,6.1,0.1,9.3-0.1
											c3.5-0.2,6,0.5,7.7-1l0,0c0,0,0,0,0-0.1c0.7-0.6,1.2-1.6,1.6-3.3l0,0c0-0.1,0-0.3-0.1-0.4c-0.1-0.1-0.2-0.2-0.3-0.3
											s-0.3-0.2-0.5-0.1c-1.9,0.7-4,0.5-6.2,0.3c-0.3,0-0.5,0-0.7,0c-1,0-2,0-3,0.1c-0.6,0.1-8.3,1.8-7.7-1.2
											c0-0.1,6.2-0.6,7.2-0.7c3-0.1,10.9,2.3,13.1,0.1c2.2-2.2-0.1-2.1-1.4-3.2c0.2-0.1,0.5-0.3,0.9-0.5
											c0.9-0.5,1.7-1.1,2.6-1.5c1-0.5,3.1-0.7,3.3-2.1c0.8-4.2-4.5-3.4,2.5-4.4c1.9-0.2,2.5-0.3,3.2-0.6
											c0.3-0.1,0.5-0.2,0.5-0.3c0.3-0.2,0.7-0.6,1.2-1c1.6-1.4,3.3-3.4,5.2-4.4c1.8-1,4.5-0.7,6.1-2c0.2-0.1,0.2-0.3,0.1-0.5
											c1.1,0.2,1.7,0.1,1.8-0.4c0.8,0.1,1.8-0.2,2.5-0.4c0.2-0.1,0.4-0.3,0.4-0.5c0.2-6.1-12.1-5.6-15.7-5.9
											c-2.3-0.2-4.8-0.3-7,0.3c-3.2,0.8-2.5,1.1-6.8,0.3c-1.2-0.2-3.4-0.7-4.6-0.5c-0.9,0.2-0.5,1.4-1.8,1.2
											c-0.2,0-0.4,0-0.6,0.2c-1.7,2.9-3.7,0-5.7,1.1c-0.1,0.1-0.3,0.3-0.2,0.4c0.2,2-8.3,1.7-10,3.6c-0.2,0.2-0.2,0.5,0,0.7
											c3.3,3.5,8.9,3.7,13.5,3.7c1.7,0,3.5-0.2,5.2-0.5c1.2-0.2,2.3-0.6,3.5-0.9c1.3-0.4-2.7,0.9-3.3,1
											c-1.9,0.3-3.8,1.5-5.6,1.7c-1.5,0.1-4.6-0.2-6.2-0.5c-0.4-0.1-0.9-0.2-1.3-0.3c-0.1,0-0.1,0-0.2,0
											c-3.1-0.9-6.5-2.9-9.5-4.1c-0.1-0.1-0.4,0-0.5,0.1s-1.3,0.4-1.4,0.4c-0.2,0-0.3,0.2-0.3,0.3c-0.4,2.2-5.7,5.3-3.8,7.8
											c0.4,0.6,2.9,0.9,3.5,1c0.8,0.1,1.6,0.1,2.4,0.1c-0.5,0.4-1,0.9-1,0.9c-0.1,0.2-0.2,0.5,0,0.6c1,1,7.5,3.1,7.3,1.7
											c0.1,0.6,1,0.7,1,0c0,0,2.5-0.4,2.5-1.4c0,0.4,0.4,0.6,0.7,0.4c1.3-0.7,3.4-2.2,4.8-2.5c0.1,0.2,0.2,0.4,0.5,0.6
											c-0.4-0.2-0.8-0.2-1.3,0.1c-0.2,0.2-0.5,0.4-0.7,0.5c-0.1,0-0.2,0-0.3,0c-0.4,0-0.6,0.1-0.7,0.4c-0.4,0.1-0.5,0.3-0.4,1.1
											c0,0.2,0,0.3,0.1,0.4c0,0.2,0.1,0.4,0.1,0.6c-0.1-0.2-0.3-0.4-0.5-0.4c-1.2-0.2-1.7-0.4-2.5,0.7c-1.1,1.5,0.7,2.1-0.4,3.7
											c0,0-0.1,0-0.3,0.1c0.2-0.5,0.4-0.9,0.5-1.3c0.1-0.3-0.1-0.5-0.3-0.6c-0.6-0.2-1.2-0.4-1.8-0.7c-0.1,0-0.2,0-0.3,0
											c-0.7,0.1-2.3,0.1-2.7,0.8c-0.3,0.6,0.4,1.7,0.9,2.1c0.4,0.3,0.9,0.3,1.4,0.4c-0.5,0.2-1,0.3-1,0.3c-0.3,0-1-0.9-1.4-0.8
											c-0.6,0.1-1.2,0.4-1.8,0.6c-0.3,0-0.6-0.1-1-0.1c-0.2,0-0.3,0-0.5,0c0-0.6,0-1.2,0-1.8c0-0.4-0.6-0.7-0.8-0.4
											c-0.5,0.6-1.1,0.5-1.7,0.4c0.2-0.4,0.4-0.9,0.6-1.3c0.2-0.5,0.5-0.9,0.7-1.5c0.1-0.2,0-0.5-0.2-0.6
											c-0.8-0.5-1.7-0.9-2.5-1.4c0,0,0,0-0.1,0c0,0,0,0-0.1,0c-1.2-0.4-2.3-0.8-3.5-1.2c-1.7-0.6-2.1,0.3-1.9,1.9
											c0,0.3,0.1,0.6,0.1,0.9l0,0c-1-1.6-2-3.2-3.7-3.9c-2.7-1-4.9-1.8-7.6-1.2c-0.7,0-1.5,0.1-2.1,0.4
											c-0.2,0.1-0.3,0.5-0.2,0.7c0.4,0.5,1.4,1.7,2.1,2c0.2,0.1,0.7,0,0.7,0c0.1,0.1,0.1,0.1,0.1,0.1c0,0.1-0.1,0.3-0.1,0.7
											l-0.2,0.2c-0.1,0.1-0.1,0.4,0,0.5c0.2,0.4,0.5,0.8,0.9,1.1c0.1,0.1,0.3,0.2,0.5,0.1c1.2-0.5,2.7,0.2,3.8,0.3
											c1,0.1,1.6-0.1,2.1,0.5h-0.1c-0.3-0.1-0.5-0.2-0.9-0.2c-0.6-0.1-0.9,0.7-0.3,1c0.1,0,0.2,0.1,0.4,0.1
											c0.7,0.3,0.3,0.8,0,1.5c-0.1,0.1-0.1,0.4,0,0.5c1.1,1.5,2.5,1.4,3.6,0c0.8-1,1.4-1.8,1.5-2.6c0.3,0.3,0.8,0.6,1.2,0.8
											c0.1,0.1,0.2,0.1,0.3,0.2h-0.1c-1.3,0.3-0.7,1.1,0,2c0.8,1.1,1.8,1.7,3.1,2.1c0.8,0.2,0.4,0,0.7,0.3c0.6,0.8,0.4,0.8,0,1
											c-0.7,0.4-1.8-0.3-2.6,0.3c-0.2,0.1-0.2,0.4-0.1,0.6c0.2,0.3,0.4,1.8,1,1.7c-0.4,0.1-0.4,0.6-0.2,0.8
											c0.7,0.9,1.8,1.9,2.9,2.2l0,0c-1.2,0.7-2.6,2.7-2.7,4.1c-0.2,1.7,1.5,3.6-0.9,4.3c-0.2,0.1-0.4,0.3-0.4,0.5
											c-0.1,2.3,1.1,4.1,1.6,6.1v0.1c0,0,0,0.1-0.1,0.1c-0.2,0.1-0.5,0.3-0.7,0.4c-0.1-0.1-0.2-0.2-0.3-0.3
											c-0.9-0.4-0.4-0.8-1.5-0.5c-0.2,0-0.3,0.1-0.3,0.2c-0.5,0.6-6.3,1.8-2.5,3.7c0.2,0.1,0.5-0.2,0.7-0.2
											c0.5,0.1,1,0.6,1.4,0.8c-0.2,0-0.3,0-0.5,0s-0.4,0.1-0.5,0.4c-0.3,1.3-3.8,0.9-4.9,0.8c-1.3,0-3.1,0-4.3-0.5
											c-1-0.4-1.9-1.6-2.7-1.8c-1-0.3-1.5-0.5-2.6-0.1c-2.1,0.8-1.5,3.3-2.1,0.2l0,0c0.6-0.2,1.1-0.4,1.4-0.5s0.4-0.3,0.3-0.6
											c-0.2-0.9,6.6,1.9,7.5,1.6c1-0.3,1.5-0.4,1.8-1.4c0-0.2,0-0.4-0.1-0.5c-0.8-0.7-0.6-1.8,0.6-2.1c0.3-0.1,0.5-0.5,0.3-0.7
											c-0.4-0.6-0.9-1.3-1.3-1.9c-0.2-0.3-0.6-0.3-0.9,0c-0.6,0.9-2.1-3.1-2.4-3.9c-0.1-0.4-0.7-0.5-0.9-0.1
											c0-0.1-0.1-0.2-0.1-0.2c-0.1-0.5-0.2-1.3-0.4-2.1H89c0.4,0,0.7,0,1.1-0.2l0,0c0,0,0,0,0.1,0l0.1-0.1h0.1
											c0.3-0.2,0.5-0.4,0.7-0.5s0.3-0.3,0.2-0.6c-0.2-1.1-0.5-2.4-1.1-3.4c-0.5-0.8-1.5-1.1-2.5-1c-0.6,0.1-1.8,0.5-2.3,1
											c-0.6-0.1-1.3,0-2.1,0.5c-1.8,1.1-1.5,2.6-1.2,4.6c0,0,0,0,0,0.1c-0.1-0.3-0.3-0.6-0.5-0.9c-0.5-0.8-1.1-1.3-1.8-2
											c-0.2-0.2-0.6-0.2-0.8,0.1c-0.4,0.7-0.9,2-1.8,2.3c-2.3,0.6,0.1-0.4-0.8-0.9c-0.2-0.1-0.3-0.2-0.5-0.3
											c0-0.1-0.1-0.1-0.2-0.1h-0.1c-0.6-0.4-1.2-0.8-2.5-1.2c-0.1,0-0.3,0-0.4,0.1c-0.1-0.2-0.2-0.4-0.5-0.4
											c-0.6,0-1.7,0.1-2.4,0.2c0.3-0.4,0.5-1,0.5-1.1c0.1-0.2,0-0.4-0.2-0.6c-0.4-0.3-3.5-1.7-3.6-1.4c0.1-0.2-0.1-0.4-0.2-0.6
											c-0.6-0.4-1.1-0.3-1.6-0.2c0.1,0.1,0.3,0.3,0.4,0.4c-0.2,0-0.3,0-0.6,0.1c-0.3,0-0.4,0.1-0.6,0.2c0-0.2,0-0.3,0-0.4
											c-0.2,0.1-0.4,0.2-0.6,0.2c-0.1,0-0.2,0.3-0.2,0.3c-0.1,0.2-0.2,0.5-0.2,0.7c-0.6-0.2-1.1-0.4-1.7-0.7
											c-2.4-0.2-5.4-0.5-7.7-1.2c-0.2-0.1-0.4,0-0.5,0.1c-0.3,0.3-0.6,0.7-0.9,1l-0.1,0.1l0,0c0,0,0,0,0,0.1v0.1
											c-0.4,3.7-3.3,3.8-1.7,7c0.8,1.5,3.7,4.5,5.7,4.5c1.5,0,4.7-2.4,5.8-3.2c0.1,0,0.2-0.1,0.2-0.2c0,0.1,0.1,0.1,0.2,0.2
											c1,0.5,3.4,0.6,4.6,1.1c-1-0.1-2.1,1-2.4,2.1c-0.7,2.5,0.9,3.3,2.8,3.5v0.1c0.2,0.3,0.5,0.6,0.8,0.8c0,0.1-0.1,0.2,0,0.3
											c0.1,0.2,0.3,0.2,0.4,0.2c0.2,0,0.3,0,0.5,0c0.6,0.3,1.3,0.4,1.9,0.7c-0.1,0-0.3-0.1-0.4-0.1h-0.1l0,0
											c-4.2-1.1-15.1-3-15.1-3.2s-0.1-0.4-0.2-0.4c-0.6-0.3-0.6-0.4-1.3-0.3c-0.2,0-0.4,0.2-0.5,0.4c-1.2,4.1-3-0.4-5.3-1
											c-0.4-0.1-0.7,0.2-0.6,0.6c0.3,1.5-2.7,2.1-0.8,0.4c0.4-0.3,0-0.9-0.5-0.8c-1.6,0.4-3.3,0.7-4.9,1.2
											c-0.3,0.1-1.3,1.4-1.8,1.5c-0.9,0.2-2.1-0.5-3-0.4s-1.7,0.6-2.5,0.7c-1.9,0.3-1.7,0.2-3.6-0.1c-1-0.2-1.7-0.7-2.7-0.8
											c-0.2,0-0.3,0.1-0.4,0.2c-0.2,0-0.4,0-0.5,0c-4.3-0.8-10.9-3.3-14.1-1.5c0.3-0.2,0.3-0.7,0-0.9c-2.6-1.7-5.9-0.8-8.7-2.1
											c-0.2-0.1-0.4-0.1-0.6,0.1c-0.5,0.4-3.6,2.2-2.4,0.6c0.2-0.2,0-0.6-0.2-0.7c-3.5-1.7-7.7,0.8-11.1,1.9
											c-2.3,0.7-3.4,2.2-5.3,3.2c-2,1.1-4-0.2-4.8,2.4c-0.1,0.2,0,0.4,0.2,0.6c2,1.4,3.5,3.2,5.5,4.4c0.1,0,3.9,1.9,4,1.5
											c-0.2,0.8-0.6,0.3-1.2,0.7c-0.7,0-1.4,0.3-2,0.6c-0.8,0.5-0.8,0.4-0.1-0.3c-0.5-0.3,0.2-1.7-1.7-2c-1.7-0.3-5,2.7-6.3,3.6
											c-0.3,0.2-0.3,0.6,0,0.9c0.6,0.4,1.1,1,1.6,1.6c0,0.3,0.1,0.5,0.3,0.6c2.5,0.8,5.5,1.3,8.1,1.9c-0.4,0.2-0.9,0.4-1.6,0.7
											c-1,0.4-1,1.3-2.2,0.5c-0.2-0.2-0.5,0-0.7,0.2c-0.9,1.2-3.1,4.1-2.5,5.7c0.3,0.7,1,1,1.6,1.3c-0.2,0-0.4,0-0.6,0
											c-0.5,0.1-0.7,0.6-0.3,0.9c2.4,1.7,1.2,1.5,2.8,2.5c0.1,0.1,0.4,0.1,0.5,0c4.5-3,0.4,1.5,2.4,2.8c0.1,0.1,0.4,0.1,0.5,0
											c0.3,0.1,0.7,0.1,1,0.2c0.1,0.4,0.6,0.4,0.8,0.2c1.5-1.2,1.9-1,3,0.3c0.2,0.2,0.5,0.2,0.7,0c0.5-0.4,0.5-1.2,1.2-0.6
											c0.2,0.2,0.5,0.2,0.7,0c0.9-0.7-0.3,1.1-0.6,1.5c-0.9,1.1-1.7,1.4-2.8,2.1c-1.8,1.2-3.9,2.3-5.8,3.3c-2,1-6.1,1.8-7.6,3.5
											c-0.2,0.2-0.2,0.6,0.1,0.8c1.6,1.1,2.6-0.3,3.7-0.8c2.8-1.1,5.9-1.6,8.6-2.7c3-1.2,5.9-3.1,8.6-5.3c0,0,0,0.1,0.1,0.1
											c0.4,0.5,1,0.9,1.5,1.4c0.2,0.3,0.4,0.7,0.8,0.8c0.8,0.3,1.4-0.6,1.8-1.1c0.8-0.9,1.5-1.5,2.4-2.3c1.6-1.3-0.6-1.9-1.7-2
											c-0.2,0-0.3,0-0.4,0.1c-0.7,0.4-1.4,0.9-2.2,1.3c-0.2,0.1-0.4,0.1-0.6,0.2c0.8-0.7,1.6-1.4,2.3-2.2
											c0.3-0.3,0.1-0.7-0.2-0.8c-1.4-0.4-1.7-0.6-2.2-0.7c0.8,0,1.8,0.1,2.5,0.1c0.2,0,0.4-0.2,0.5-0.4c0.2-0.9,0.6-1.7,1.2-2.3
											c0.2-0.2,0.8-0.5,1.4-0.8c-0.5,0.8-1.9,3.2-1.4,2.9c-0.3,0.2-0.3,0.7,0,0.9c1.9,1.3,1.8,0.2,3.6-0.5
											c1.2-0.5,3.7-0.2,4.7-0.9c0.2-0.2,0.4-0.6,0.1-0.8c-2-1.7,0.7-2.1,0.4-0.4c-0.1,0.3,0.1,0.6,0.5,0.6c2,0,2.1-0.7,3.5,1.5
											c0.6,1,0.9,2.7,1.5,3.7c0.1,0.2,0.3,0.2,0.4,0.2c1.1,0,2.1,0,3.2,0c0.2,0,0.4-0.2,0.5-0.4c0.5-1.7,0.8-2,2.7-2.8
											c0.2-0.1,0.3-0.2,0.4-0.5c0-0.1,0-0.2,0-0.3c0.1,0,0.2,0,0.3,0.1c0.1,0.1,0.3,0.1,0.4,0.2c0.5,0.3,1,0.8,1.5,1.2
											c0.3,0.2,0.7,0.3,1,0.5c0,0.4,0,0.9,0,1.4c0,0.3,0.2,0.5,0.5,0.5c0.4,0.1,0.9,0.2,1.2-0.2c0.1-0.2,0.2-0.4,0.1-0.6
											c0-0.2,0-0.5,0-0.7c0-0.1,0-0.2,0-0.3c0.2-0.1,0.4-0.1,0.8-0.1h0.1c-0.1,0.2-0.2,0.3-0.2,0.5c0,0.1,0,0.1,0,0.2l0,0
											c0,0.1,0,0.1,0.1,0.1c0.1,0.1,0.1,0.2,0.1,0.3v0.1l0,0c0,0,0,0,0,0.1c0,0.5,0.7,0.7,0.9,0.3c0,0,0-0.1,0.1-0.1l0,0
											c0.1-0.2,0.1-0.4,0.2-0.6c0-0.1,0-0.2-0.1-0.4c0.4,0.2,0.8,0.5,1,0.7s0.7,0.2,0.8,0.5c0.3,0.6-0.3,0.3-0.2,0.8
											c0.2,1,0,2,1.1,2.6c0.1,0,0.1,0,0.2,0.1c0,0,0,0-0.1,0.1c-0.2,0.3-0.2,0.6,0.1,0.8c1.2,0.9,1.2,1.9,1.3,3.2
											c0,0.2,0.1,0.4,0.2,0.4l0,0c0,0,0,0,0,0.1c0,0.4,0.1,0.8,0.3,1.2c-0.2-0.1-0.4-0.1-0.6-0.2c-0.2-0.1-0.4,0-0.5,0.2
											c-0.1,0.1-0.2,0.3-0.1,0.5c0.2,0.7,0.5,1.3,0.8,1.9c0.3,0.7,0.6,1,1.1,1.5c0.7,0.6,1,1.6,1.8,2.1s1.1-0.5,1.6-0.9
											s1.1-0.9,0.6-1.6c-0.1-0.1-0.2-0.2-0.3-0.3c0.6,0.3,1.3,0.6,1.8,0.8c0.2,0.1,0.4,0.1,0.6-0.1c0,0.1,0.1,0.1,0.1,0.2
											c2.4,1.1,1.4,4,2.5,5.8c1,1.7,5.9,3.1,6.2,5.4c0.5,3.2,0.6,5.9-0.2,9c-0.2,0.8-0.9,1.8-0.8,2.7c0.1,1.5,1.9,1.9,0.4,3
											c-0.2,0.2-0.3,0.4-0.2,0.7c0.4,0.8,1.1,1.7,0.7,2.6c-0.1,0.2-0.1,0.4,0.1,0.6c1.7,2.1,3.3,4.1,4.8,6.3
											c0.9,1.4,1.6,3.8,3.2,4.6c0.2,0.1,0.5,0.1,0.6-0.1c0.4-0.5,1.2-0.7,0.5-0.3c-0.2,0.1-0.3,0.4-0.2,0.6
											c0.3,0.9,0.2,0.7,0.7,1.5c0.2,0.3,0.7,0.4,0.9,0c0.4-0.9,1-1.6,1.7,0.3c0,0,0,0,0,0.1c1,2.5,1.4,4.3,3.4,6.4
											c1.4,1.5,2.6,1.1,0.1,1.9c-0.4,0.1-0.5,0.5-0.2,0.8c2.1,2.6,4.8,5,7.2,7.4c1.7,1.7,2.5,2.3,4.6,1.4
											c0.3-0.1,0.5-0.6,0.2-0.8c-1.6-1.4-2.3-3-3.3-4.8c-0.2-0.3-0.5-0.3-0.7-0.2c0-0.2-0.1-0.5-0.3-0.9c-0.4-0.7-1-1.3-1.5-1.9
											c-0.4-0.6-0.8-1.3-1.1-1.9c0.8,1.3,2.2,2.8,3.1,3.8c1.9,2.2,4.5,3.3,6.3,5.7c1.7,2.3,1.2,4.3,2.1,6.4
											c1.1,2.4,4,3.1,6.2,4.2c2.7,1.3,5.7,3.2,8.6,4c2.7,0.7,5.9-1.2,7.6,1.4c1,1.9,1.7,4.1,2.5,6.1c0.1,0.2,0.2,0.4,0.5,0.4
											c0.5,0,1,0,1.5,0c1.2,0,1.5-0.5,2.6-1.1c1-0.6,1.7-0.3,2.8-0.5h0.1c0.5,0.3,1.1,0.5,1.5,0.9c0.1,0.1,0.1,0.4,0.2,0.5
											c0.1,0.4,0.2,0.7,0.4,1.1c0.2,1,0.1,1.5,1,2.1s2,1,3,1.4c0.1,0,0.2,0.1,0.3,0c0.8,0.3,1.7,0.4,2.5,0.7
											c1.1,0.5,1.2,1.2,1.6,2.2c0.1,0.3,0.4,0.4,0.7,0.3c2-0.9,2.3-1.7,1.4-3.2c0.3-0.1,0.7-0.1,0.9-0.3c0.6-0.3,0.7-0.8,1.4-1
											c1-0.3,2.5,3,3.1,4c0.1,0.1,0.2,0.2,0.3,0.2c0.1,0.2,0.2,0.6,0.2,1.4c0,2.5-0.1,6.6-2,8.7c-0.3,0.1-0.6,0.3-0.7,0.6
											c-0.3,0.2-0.6,0.4-1,0.5c-0.2,0.1-0.3,0.3-0.4,0.5c0,0.1,0,0.3,0,0.4s-0.1,0.1-0.1,0.2c0,1.2-2.4,0.6-3.1,1
											c-0.3,0.1-0.3,0.6-0.1,0.8c0.1,0.1,0.5,0.3,0.7,0.5c0,0.1,0,0.2-0.1,0.3c0,0.1-1.8,2.2-1.3,2c-0.1,0.1-0.3,0.3-0.2,0.4
											c0,1.2-1,2.6-0.4,3.6c0.1,0.2,2,1.8,1.9,1.8c0,0,0,0-0.1,0c-1.3,0.1-2.7,2.7-3.1,3.4c-0.2,0.2,0,0.5,0.2,0.7
											c0.3,0.6,0.6,1.2,0.9,1.8c-0.2,0.1-0.3,0.4-0.2,0.6c0.3,1.3,3,2.5,3.7,3.2c1.9,2,4.7,6.2,5,9c0,0.2,0.1,0.4,0.4,0.5
											c2.8,0.6,2.8,4.9,4.5,6.8c1,1,8.2,6.1,9.4,4.8c-0.2,0.2-0.2,0.6,0.1,0.8c0.7,0.4,0.9-0.1,0.6,0.6
											c-0.1,0.3,0.1,0.5,0.3,0.6c0.8,0.3,1.6,0.7,2.4,1.1c1,3,1.5,7.9-0.6,10.6c-0.1,0.2,0,0.4,0.1,0.6c2.6,3.3-0.9,10-0.9,13.7
											c0,4,0.5,8.6-2.6,11.8c-0.1,0.1-0.2,0.3-0.1,0.5c0.8,2.2,0.5,6.7-0.8,8.9c-0.1,0.2-0.1,0.4,0.1,0.6c0.6,0.6,1.2,0.4,2,0.3
											c0.2,0,0.4-0.3,0.4-0.5c-0.1-0.9,1.1-3.3,0.5-0.6c-0.1,0.4-0.6,2.9-0.7,2.5c-0.1-0.2-0.2-0.3-0.5-0.4c-0.1,0-0.1,0-0.2,0
											c-0.2,0-0.4,0.2-0.5,0.4c-0.6,1.7-2.8,1.4-4.2,1.6c-0.5,0.1-0.7,0.9-0.1,1c0.7,0.1,4,0,4,0.1c0.7,0.3,1.5-0.5,0.4,0.4
											c-0.1,0.1-0.2,0.3-0.1,0.5c0.4,1,0.2-0.1-1.1,0.4c-0.2,0.1-0.4,0.3-0.3,0.6c0.1,0.4,0.2,0.5,0.4,0.8
											c0.1,0.1,0.3,0.2,0.5,0.1c0,0,0.1,0.3,0.2,0.7c-0.5-0.1-0.9-0.1-1.5,0c-0.9,0-1.8,0-2.7,0.1c-0.3,0-0.5,0.2-0.5,0.5
											c0,0.1,0,0.3,0,0.4c0,0.3,0.2,0.5,0.5,0.5c1.3,0.1,2.6,0.3,3.9,0c0.1,0,0.2,0,0.3,0c0.1,1,0.2,2.1,0.2,2
											c0,0.2,0.3,0.4,0.5,0.4c0.1,0,0.2,0,0.2,0c0.3,0,0.5-0.2,0.5-0.5c0-0.5,0-1.1,0-1.6c0.9,0.2,1.6,0.3,1.8,0.4
											c-0.2-0.1-0.6-0.1-0.7,0.2c-0.2,0.4-0.2,0.7-0.2,1.2c0,0.2,0.2,0.4,0.4,0.5c1.2,0.4,3.9,1.3,4,0.9c0,0.2,0,0.5,0.2,0.6
											c1.5,0.8,2.7,0.8,4.3,0.8l0,0c1.3,0.2,3,0.1,4.3-0.4c0.4-0.2,0.5-0.7,0.1-0.9c-0.8-0.5-7-3-3-4c0.2-0.1,0.4-0.3,0.4-0.5
											c0,0.1,3.4-3.6,3.6-4c0.2-0.4-0.1-0.9-0.6-0.7c-0.9,0.3-0.3-1.1,0.4-1.2c0.2-0.1,0.4-0.3,0.4-0.5c0-0.7,1.4-2.1,1.8-2.5
											c0.2-0.2,0.2-0.5,0-0.7c-0.8-0.7-1.2-1.1-1.3-1.4l0,0c0-0.1,0-0.2,0-0.3c0.6-0.8,5.2,0.4,5.8-0.6c0.5-0.7-0.7-1.3-0.3-2
											c0.9-2.1-0.6-0.7,1.9-1c3.1-0.4,9.2-0.6,9.6-4.6c0,0.1-0.7-1.6-1.4-2.6c0.5,0.1,1,0.2,1.4,0.3c1.4,0.3,3.5,0.7,4.8,0.1
											c0.9-0.4,2-1.3,2.5-2.3c0.1,0,0.1,0,0.2-0.1c1.3-1.3,2.8-2.2,3.8-3.5c0.1,0.2,0.3,0.2,0.5,0.2c2.5-1.1,3-3.1,5.2-4.8
											c3-2.3,1.6-0.3,2.9-4.3c1.8-5.5,9.4-7.8,14.5-8.3c0.2,0,0.4-0.1,0.5-0.4c0.1-0.5,0.3-1,0.6-1.5c0.3-0.2,0.5-0.5,0.6-1
											c0.6-0.8,1.3-1.6,2-2.4c0.5-0.3,0.6-0.5,0.8-0.9c1.2-1.3,2.4-2.6,3-3.7c1.1-2,3-10.9,4-10.7c0.2,0,0.5,0,0.6-0.2
											C235.4,332.6,241.4,328.9,240.5,321.4z"/>
										<path class="st12" d="M604.2,174c0.8-0.8-1.4-4.9,0.7-3.5c0.1,0.1,0.4,0.1,0.5,0c5.4-3.3-3.3-5-5.9-4.2
											c0.2-0.1-1.2-1.1-2.9-2.2c-0.1-0.1-0.2-0.2-0.2-0.2s-1.6-1.2-2.8-1.7c-1.2-0.8-2.3-1.4-2.5-1.5c-4.9-2-8.4-3.8-13.5-4.4
											c-2.3-0.3-3.4-0.4-5.5,1.1c-0.3,0.2-0.4,0.3-0.6,0.5c-1,0.8-1.6,1.4-2,1.8c0-0.1-0.2-0.2-0.5-0.2c-0.2,0-0.5-0.1-0.8-0.3
											l-0.1-0.1c-0.4-0.3-0.9-0.5-1.4-0.7c-0.8-0.4-1.6-0.8-2.3-0.9c-2.4-0.3-4.8,0-7.3-0.2c-1.5-0.1-2.6-0.8-3.8-0.9
											c0.4,0,0.6-0.4,0.4-0.7c-2.3-3.6-6.6-2.2-10.3-2.2c-3.5,0-5.3-0.6-7.7-2.5c-0.7-0.5-1.1-1.9-2.2-2.1
											c-0.1,0-6.1,2.5-5.3,0.8c0.1-0.2,0.1-0.3,0-0.5c-2.5-3.7-7.9-1.4-11,0.5c-0.1,0.1-0.3,0.3-0.2,0.4
											c0.1,1.1,0.5,0.9-0.2,1.1c-0.9,0.3-2.4-0.9-3.5-0.9c-1.4,0-2.7,1.1-4,1.1c-1.5,0-2.4-1-3.9-1.2c-0.2,0-0.4,0.1-0.4,0.2
											c-0.5,1.1-1.5,3.2-3.3,2.5c-0.5-0.2-0.5-3.4-0.7-3.8c-0.3-0.7-2.2-0.7-1.5-2c0.1-0.2,0.1-0.4-0.1-0.6
											c-2.2-2.5-8.2-2.8-11.2-2.7c-0.3,0-0.5,0.2-0.5,0.5c0,0.1,0,0.1,0,0.2c0,0.2,0.1,0.3,0.2,0.4c2.7,1.4-3.2,1.1-4.3,0.9
											c-2.2-0.5-3-1.5-5.3-1.6c-1.6,0-3.1,0.8-4.6,0.8c-1.9,0-3.7-1.2-5.6-1.1c-0.5,0-0.6,0.6-0.3,0.9c-0.5-0.4-5.2,0.7-6.2,1
											c-3.8,1-0.8,0.4,0.9-0.9c2.6-1.9,7.6-4,9.2-6.8c1.9-3.4-0.3-3.8-3-4.3c-1.3-0.3-3.2-1.1-4.5-1c-0.8,0-1.5,0.6-2.2,0.7
											c-0.1,0-0.1,0-0.2,0.1c0.1-0.1,0.3-0.2,0.4-0.3c0.2-0.2,0.2-0.5,0-0.7c-0.8-0.9-2-0.4-3-0.4c-3.5,0.1-3.1,0.7-0.1-0.9
											c0.4-0.2,0.3-0.8-0.1-0.9c-3.7-0.9-5.6,0.1-8.9,1.9c-0.1,0.1-0.3,0.3-0.2,0.4c0,1-4.1,3.3-5.5,3.2
											c-0.8-0.1-1.1-0.8-1.6-0.9c-2.3-0.3-4.9,0.2-7.3,0.8c-3.4,0.9-7.1,2.8-10.6,4.9c-0.3,0.2-0.3,0.6-0.1,0.8
											c1.5,1.3,3.1,0.9,1,3.1c-0.2,0.2-0.6,0.4-1,0.6c0.1-0.2,0.1-0.4-0.1-0.6l0,0c-0.2-0.1-0.4-0.2-0.6-0.1
											c-0.1,0-0.1,0.1-0.2,0.1s-0.1,0.1-0.2,0.1c-0.4,0.2-0.3,0.7,0.1,0.9c-0.3,0.1-0.6,0.2-0.8,0.3c-0.1,0-0.1,0-0.2,0.1h-0.1
											c-1,0.5,0.4,0.5-1.9,0.5c-1.4,0.1-3.5-1.2-4.7-0.8c-1.9,0.7-2.2,1.9-1.2,3.3c-0.6-0.3-1.2-0.5-1.7-0.5
											c-1-0.1-1.5,0.1-2,0.4c-0.6,0.1-0.7,0.4-0.7,0.5c-0.3,0.2-0.5,0.3-0.9,0.4c-0.2,0-0.7-0.8-1.3-0.8c-0.3,0-2.5,0.3-2.9,0.5
											c0,0,0,0,0-0.1c-0.8-1,0.5-2.9-1.3-3.2c-1.3-0.2-0.3,2.1-0.3,2.1c-1,1.6-3.1,1.6-3.2,3.6c-0.1,0.7,2,2,1.9,3
											c0,0.7-1.4,1.4-1.5,2.3c0,1.4,1.1,2.4,2.6,2.2l0,0c0,0,0,0-0.1,0.1c-0.3,0.9-0.2,1.8-0.3,2.4c-0.6,2.2-0.3,1.3-2.5,3.1
											c-0.5,0.4-1.1,0.7-1.6,1.1c-0.1,0.1-0.2,0.3-0.1,0.4c-0.4,0-1-0.1-1.5-0.1c0.4,0,0.7-0.1,1-0.2c2.1-0.9,3.3-3.3,3.9-5.3
											c0.1-0.2,0-0.5-0.2-0.6c-1.5-0.6-2.3-1.9-2.5-4c0.2,0,0.5,0,0.6-0.2c0.3-0.5,0.5-1,0.5-1.6c0-0.2-0.1-0.3-0.2-0.4
											c-2.4-1.3-6.1-3.4-3.6-5.9c0.1,0,0.2,0,0.3,0c0.6,0,1.2-0.3,1.7-0.5s0.2-0.9-0.3-0.9c-0.7,0-1.4,0-2.1,0c0,0,0,0-0.1-0.1
											c-0.3-0.2-0.6-0.3-0.9-0.3s-0.6,0.1-0.8,0.4c-1.9,0.2-2.2,2.2-3.7,4.3s-2.8,3.9-1.3,6.7c0.1,0.2,0.3,0.2,0.4,0.2
											c1.6,0,1.2-0.2,2.3,1.1c0.4,0.5,1.3,0,0.9,0.6c-0.1,0.1-2.8-0.1-2.9-0.1c-0.8-0.2-2-1-2.8-1.3c-1.5-0.7-3-1-4.5-1.4
											c-0.1,0-0.2-0.1-0.3-0.1c-1.5-0.3-3-0.6-4.6-1.1c-0.6-0.2-1.6-1.1-2.5-1.4c-0.2-0.1-0.6,0.1-0.6,0.3
											c-0.4,2.7,0.8,1.7,2.5,3.4c2.3,2.2,0.8,0.7-0.2,2.2c-1.1,1.6-0.1-0.5,0.3-1.4c0.1-0.2-0.1-0.4-0.2-0.6
											c-0.7-0.4-0.6-0.4-1.4-0.4c-0.3,0-0.6,0.3-0.5,0.6c0.1,0.5-2.1,0.8-2.8,1c-1.9,0.6-7.3,2.5-2.6,0c0.4-0.2,0.2-0.9-0.3-0.9
											c-4.6-0.1-10.3,1.8-14,4.5c-0.2,0.1-0.3,0.4-0.2,0.7c1.3,2,0.3,1.3-0.5,1.9c-0.2,0.2-1,0.1-1.5,0c0-0.1,0-0.2,0-0.3
											c-0.8-2.5-0.5-1.9,2-3c0.3-0.1,0.5-0.6,0.2-0.8c-2-1.7-4.2-2.1-6.7-2.6c-0.3-0.1-0.5,0.1-0.6,0.3
											c-0.2,0.4-0.4,0.9-0.5,1.3c-0.1,0.2,0,0.4,0.1,0.5c0.8,0.7,0.8,1.7,0.1,2.9c-0.1,0.1-0.1,0.4,0,0.5c0.7,1,1.1,1.7,1.2,2.1
											c0,0.1,0,0.3,0,0.4c-0.3,0.4-1.8-0.1-3.7-0.5c-0.5-0.1-0.8,0.4-0.5,0.8c-0.5-0.6-3.6,1.8-4.2,2.2c-0.3,0.2-0.4,0.7,0,0.9
											c3.9,1.7-1.9,0.2-2.3,0.2c-1,0-2-0.1-2.9,0.5c-0.2,0.2-0.3,0.4-0.2,0.7c0.2,0.5,0.5,0.7,0.7,0.8c-0.8-0.1-1.5-0.2-1.9-0.3
											c-0.1,0-0.2-0.1-0.3-0.1c0.1-0.1,0.3-0.2,0.2-0.4c-0.1-0.8-0.1-1.9-0.4-2.6c-0.3-0.7-1.2-2-1.8-2.5
											c-0.1-0.1-0.1-0.1-0.2-0.1c3.3,0.8,6.4,2,9.8,1.6c0.6-0.1,0.7-0.8,0.1-1c0.5,0.2,0.7-2.7,1-3.1c0.2-0.2,0.2-0.4,0.1-0.6
											c-1.4-2.6-6.7-2.7-7.2-5c0-0.2-0.2-0.3-0.3-0.3c-0.7-0.1-4.3-0.2-4.3-1c0-0.2-0.1-0.4-0.2-0.4c-0.7-0.4-4.2-1.4-4.3-1.4
											c0.5-0.2,0.5-0.8,0-1c-1-0.4-2.2-0.5-3.2-1c-0.2-0.1-0.5-0.1-0.7,0.2c-0.3,0.6-0.6,1.2-1,1.8c-0.7,1.2-0.4,2.1-0.5,1.8
											c0-0.2-0.2-0.3-0.3-0.3c-0.3-0.1-0.5,0-0.7,0c-0.2,0.1-0.4,0.3-0.5,0.5c-0.6,0.8-0.6,0.6-0.2-0.6
											c-0.9-0.7-1.3-2.2-2.5-2.9c-3.2-2-5.2-0.1-8.2,0.8c-1.4,0.4-3.2,0.1-4.5,0.8c-0.6,0.3-3.4,3-3.4,3
											c-0.2,0.1-0.7-0.4-1.1-0.2c-1.1,0.6-7.3,3.8-5.2,5.4c0.2,0.1,0.4,0.2,0.6,0.1c0.2-0.1,2.1-1.2,3.1-1.6
											c-0.7,0.5-1.6,1.7-1.4,1.5c-1.5,1.6-2.3,4.5-3.6,6.2c-2.3,2.9-4.9,3.1-7.3,5.3c-1.1,1-1.6,2.6-3.1,3.7
											c-0.7,0.6-3,1.6-3.3,2.6c-0.8,2.3,1.1,7.5,3.3,8.8c0.9,0.5,2.5,0.7,3.6,0.5c0.7-0.1,1.1-1.1,1.7-1.3
											c0.4-0.1,1.9-0.9,2.9-1.4c0,0.1-0.1,0.2,0,0.3c0.7,2.3,1.9,3.7,2.8,5.8c0.2,0.4,0.8,0.3,0.9-0.1c-0.1,0.3,5.4,0.5,6.5,0.1
											c1.2-0.5,1.5-0.7,2.3-2c0.1-0.2,0.1-0.5-0.1-0.6c0,0-0.7-0.6-0.8-0.4c-0.2,0-0.4,0.1-0.6,0.1c1.3-1.1,2.7-2.3,4-3.4
											c0.1-0.1,0.3-0.4,0.3-0.5c0.2-0.4,0-0.7-0.4-0.7c0.4,0,0.1-0.7-0.4-1.7c2.2,1.3,5.2,1.2,7.6,0.9c1.7-0.2,3.6-0.6,5.3-0.9
											c0.3-0.1,0.7-0.1,1-0.2c0.6-0.2,1.5-0.7,2-1h0.1c-0.1,0.3,0,0.6,0.3,0.7c0.3,0.1,0.5,0.1,0.6,0.1c0.1,0.1,0.2,0.2,0.4,0.2
											c0.2,0,0.5,0,0.7,0.1c-2.8,0.5-6.2,0.6-7.5,0.9c-3.9,0.8-3.1,1.9-2.8,3.1c0,0.2,0,0.3,0.1,0.4c0.1,0.6,0,1.2-0.6,1.8
											c0.2-0.2-2.6,0.2-2.7,0.3c-1.4,0.8-1.6,1-1.7,2.6l0,0c0,1-0.2,2.5-0.2,2.4c0.1-0.1-0.4-0.3-0.5-0.3
											c-0.2-0.1-0.4,0.1-0.6,0.2c-0.3,0.5-1,2.2-1.2,2.2c-0.9,0.1-0.1-0.9-0.6-0.9c-1.7-0.1-0.8-0.5-3.2,0.3
											c-1.7,0.5-4.4,1.6-5.6,1.2c-0.9-0.4-1.3-1.3-2.5-1.1l0,0l0,0c-0.1,0-0.1,0.1-0.2,0.1l0,0c-1.4,1.4-3.8-0.8-3.6-2.2
											c0.2-1,2.1-1.3,2.1-2.4c0.1-1.1-1.7-2-2.6-2.1c-1.2-0.1-3.4,1.1-3.8,2.3c-1.3,3.5,3.9,6.7-2.5,7.2c-1.3,0.1-3.3-0.1-4,1.2
											c-0.5,0.8-1.1,1.6-1.5,2.5c-0.6,1-1.1,1.3-2,2c-0.3,0.2-0.5,0.4-0.8,0.8c-0.1,0.1-0.1,0.2-0.1,0.2l0,0
											c-0.2,1.7-0.6,0.7-1.9,1.6c-0.8,0.6-0.6,1.3-1.7,1.3c-0.2,0-0.9-0.7-1.3-0.7c-0.9-0.1-2,0.5-2.7,0.9
											c-0.3,0.1-0.4,0.6-0.1,0.8c-0.2,0-0.4-0.1-0.6-0.1c-0.8-0.1-2.5-0.4-3.1,0.5c-0.5,0.8-0.3,1.6,0.3,2.1
											c0.5,0.4,2,0.4,2.6,0.7c2.1,1,2.9,3,2.9,5.3c0,1.2-0.6,1.9-1.1,2.8c-0.1,0.3-0.4,0.6-0.6,0.9c-0.2-0.2-0.4-0.3-0.7-0.4
											c-2.8-1.5-8.5-2-11,0.4c-1.7,1.6,0.6,2.2,0.9,4.5c0.2,1.5-1.5,3.9-1.7,5.9c0,0.2,0.1,0.4,0.2,0.4c1.3,0.6,0,0.1,0.5,1.6
											c0.2,0.8,0.1,0.7,0.8,1.3c1.9,1.5,4.9-1.7,4.9,2.4c-0.1,0.2-0.3,0.4-0.5,0.7c0,0.1-0.1,0.1-0.1,0.2
											c-0.3,0.7-0.1,1.5-0.5,2.1s-2.1,1.2-2.7,1.5c-1.2,0.7-5.1,2-5.4,3.6c0,0.2,0.1,0.4,0.2,0.4c0.2,0.1,0.8,0.1,0.8,0.2
											c1.3,1.2,1.2,2.6-0.4,4c-0.4,0.2-0.9,0.3-1.3,0.5c-1.3,0.9-1.8,1.6-2.7,3c-1.6,0.4-2.9,2.7-3.8,3.9c-1.4,2-2.8,4.1-4,6.2
											c-0.1,0-0.3,0.1-0.3,0.2c-0.2,0.3-0.4,0.6-0.6,0.9c-0.1,0.2-0.1,0.4,0.1,0.6c2,2.2,2.6,4.3,2.5,7.3l0,0
											c0,1.4-0.2,2.7-1.2,3.8c-0.1,0.1-0.2,0.4-0.1,0.6c0.8,1,1,2.4,1.2,3.6v0.1c0.2,1.2,0.5,2.1,1.5,2.8
											c0.7,0.5,1.5,0.7,2.3,1.1c1,0.6,0.9,1.3,1,2.3v0.1l0,0c0.1,0.8,0.2,2.2,1,2.7c0.3,0.2,0.7,0.2,1,0.3
											c1,0.3,1.9,0.7,2.9,1.1c1.4,0.7,3,1.4,3.7,2.8c0.4,0.9,1,1.1,2,1.3c0.1,0,0.1,0.1,0.2,0.1c1,0,1.3-0.3,1.9-0.5
											c1.3-0.5,3.4-0.6,4.6-1.4c0.3-0.1,1-0.2,1.1-0.4c0,0.1-0.1,0.2,0,0.3c0.2,0.2,0.2,0.4,0.6,0.5c2,0.9,5.2-0.9,7-1.4
											c0.9-0.2,1.8-0.3,2.8-0.4c0.3,0,3.7-0.6,4.1-0.8c-0.1,0.1-0.4,0.4-0.3,0.5c0.3,0.3,0.9,2,1.2,2.6c1.5,2.6,1.9,1.4,4.8,0.9
											c4.6-0.3,2.5,3,2.1,5.2c-0.2,0.9-0.6,2-0.5,3c0.2,1.4,1.2,2.8,2,3.9v0.1c0.8,1.2,1.5,2.3,2.2,3.5c0,0.1,0,0.1,0,0.2
											c0.4,0.7,0.7,1.3,1.1,2c0,0,0,0,0,0.1c1.3,2.7,0.5,2.9,1.1,5.6l0,0c0,0.3-0.1,0.6,0.1,0.8c0,0,0.1,0,0.1,0.1
											c0.4,1.3,0.9,1.5,0.8,3.2c-0.1,1.9-1.9,4.2-2.5,6.1c-0.5,1.6-0.8,2.6-0.4,3.5c-0.2,0.1-0.3,0.2-0.3,0.4
											c0,2.4,0.2,3.6,1.7,5.5c1.8,2.2,3.4,3.7,3.6,6.7c0.1,1.4-0.1,2.8,0,4.3c0.2,1.9,0.8,3,1.7,3.6c0,0.2,0,0.4,0.1,0.5
											c1.3,1.6,3.3,3.7,4.1,5.6c0.8,1.8,0.7,4.8,2.5,6.1c1.6,1.1,2.1,0.4,3.7-0.1c2.9-0.8,5.6-0.6,8.5-1
											c8.4-1.3,11.2-6.6,10.9-12.9c0.2,0,0.4-0.2,0.4-0.5c-0.1-1.6,5.9-2.2,6.5-4.2c0.1-0.4,0-0.8,0-1.1c0-0.5-1.1-2.5-1.2-2.9
											c-0.7-2.4-0.7-4.4,1.4-6.4c2.4-2.4,7.3-2.9,9.1-6c1.4-2.5-0.5-6.2-1.3-8.6c0-0.2-0.1-0.5-0.1-0.7l0,0
											c-0.4-3.2-2.8-7-2.4-10.2c0-0.2-0.1-0.3-0.2-0.4c0,0-0.1,0-0.1-0.1c0.5-0.6,1.2-1,1.8-1.5c0.9-0.9,1.6-2,2.4-2.9
											c0.1,0,0.2-0.1,0.3-0.1c4.1-4.4,9.6-5.5,12.6-10.9c1.6-2.9,4.2-6.3,5.1-9.4c0.2-0.8,0.6-1.8,0-2.5
											c-1.2-1.6-3.9-0.8-5.5-0.6c-2.1,0.2-4,0.2-5.9,0.5c-0.1-0.1-0.2-0.3-0.4-0.3c-0.4,0-1.5,0.2-1.7,0.1c0,0,0.2-0.3,0.1-0.3
											c-0.1-0.1-0.1-0.5-0.2-0.7c-1.3-1.5-3.1-2.3-4.4-3.6c-2-2.1-3.5-4.8-5.1-7.2c-0.6-1-1.3-2-2-2.9c-0.6-0.7-2-1.5-2.4-2.1
											c-0.1-0.2-0.2-0.2-0.4-0.2c-0.2-1.2-0.4-2.5-0.6-3.5c0.2-0.1,0.3-0.2,0.5-0.3c0.2-0.1,0.3-0.4,0.2-0.6
											c-0.7-1.8-1.1-3.7-1.7-5.5c5.5,2.9,7.7,12.2,10.9,17.3c0.1,0.1,0.2,0.2,0.4,0.2c1.3,2.2,2.5,5.6,4.3,7.3
											c1,0.9,1.4,0.7,2.7,0.3c2.2-0.7,4.2-1.9,6.4-2.7c1.5-0.5,3.2-0.9,4.5-2c0.6-0.5,0.9-1,1.1-1.5c0.1,0,0.1-0.1,0.2-0.1
											c1.9-2.1,4.6-0.8,6.8-1.7c0.9-0.4,1.4-1.6,2.1-2.4c1.1-1.5,3.9-3.5,4.3-5.3c0.3-1.6-1.6-3.1-2.5-4.1
											c-0.6-0.6-1.6-1.3-2.1-2.1c-0.5-0.8-0.4-1.5-0.7-2.4c0.1,0.1,0.3,0.3,0.5,0.5c0.3,0.3,0.7,0.5,1,0.7
											c0.1,0.1,0.3,0.2,0.5,0.2c1.6,0.7,3.5,0.7,5-0.1c0.1,0,0.1,0.1,0.2,0.1c5-0.2,9.4,0.1,13,3.9l0,0c0,0,0,0,0.1,0.1
											c1.6,1,0.1,3.9,2.7,5c1.6,0.7,4.2-1.5,4.9-1c0.9,0.7-0.5,7.7-0.2,9.1c0.3,1.5,1,2.8,1.8,4.2c2.2,3.9,3.8,7.6,7,10.6
											c0.2,0.2,0.4,0.2,0.6,0.1c1.6-0.7,1.7-4,3.4-1.3c0.7,1.1-0.6,3.9,0.8,4.7c1.2,0.6,2.6-0.7,3-1.7c0.7-1.8-0.6-3.9-1.9-5.2
											c-1.2-1.3-2.1-0.1-1.8-2c0,0.3,1.7-1.1,1.7-1.2c0.4-0.8,0.4-1.9,0.6-2.8c0.7-3,2.3-5.8,4.1-8.3c2.5-3.4,4.6-2.7,7.4-5.3
											c0.5-0.4,0.5-1.9,1.2-1.9c0.7,0.2,2.6,0.8,3.3,0.2c1.1,0.6,2.2,1.7,2.9,2.5c1,1.1,2,2.4,2.4,3.8c0.3,1,0.1,2.2,0.5,3.2
											c0.5,1.1,1.1,1.5,2.4,1.3c1-0.1,2.2-0.8,3-1.6c0.3,0.8,1.1,3.4,1.1,3.5c0.6,1.8,0.6,3.2,0.6,5.1c-0.2,4.5,2,6.5,3.4,10.6
											c0.3,1.1,0.4,2.6,1,3.5c0.5,0.8,2.3,1.5,3,2.5c-0.5-0.2-1-0.4-1.5-0.6c-1.5-1-12.1-9.9-10.3-3.5c0.4,1.5,2,2.9,3.1,4
											c2.3,2.5,3.8,5.3,5.8,8.1c1.9,2.7,4.8,5,7.4,6.8c0.5,0.3,1.2-0.2,1.9,0.3c0.1,0.1-0.2,0.9,0,1.1c1,0.7,1.1,1.4,2.5,1.7
											c0.7,0.2,1.6-0.3,2.5-0.2c2.2,0.3,5,2.1,7.3,2.1c0.2,0,0.4-0.2,0.5-0.4c0.2-0.4,7.8,0.4,8.7,0.4c2,0.1,3.9,0.3,5.9,0.3
											c1.6,0,3.9-0.7,5.4-0.3c0.1,0,0.1,0,0.1,0c-0.9,0.8-3.5,2.7-0.8,3.4c1.2,0.3,3.7-2,4.6-2.7c1.3-1,1.8-1.4,2.9-2.9
											c0.3-0.4-0.3-0.9-0.7-0.7c-0.4,0.3-0.8,0.6-1.2,0.9c-1,0.5-0.5-0.7-0.4-0.9c0.1-0.4-0.2-0.7-0.6-0.6
											c-0.8,0.1-1.4,0.9-2.3,1.1c-2.1,0.5-5.4,0.4-7.6,0.5c-3.8,0.2-7.7-0.1-11.4-0.5c-0.3,0-0.5,0.2-0.5,0.5
											c-0.1,0-0.3-0.1-0.5-0.1c-0.7-0.7-1.6-1.6-2.2-1.8c-1.2-0.5-2.3-0.5-3.5-0.5c-2-0.1-2.7,0-4.7-0.7
											c-0.3-0.1-4.2-1.4-3.9-1.8c0.2-0.2,0.2-0.4,0.1-0.6c0.1,0.2,1.1-2.7,0.7-3.6c-0.6-1.4-2.3-1.6-3.2-2.6
											c-0.2-0.2-0.4-0.4-0.6-0.6c0-0.1,0-0.1,0-0.2c-0.1-0.4-0.1-0.9-0.1-1.2c0.1,0.2,0.2,0.3,0.2,0.3c0.1,0.2,0.5,0.3,0.7,0.2
											c0.6-0.4,1.1-0.8,1.5-1.4c0.1-0.1,0.1-0.4,0-0.5c-0.8-1.3-0.4-2.4-0.9-3.7c-0.4-1.1-1.3-1.5-1.5-2.6
											c-0.1-0.9,0.1-0.8-0.3-1.5c-0.6-1-2-1.8-2.8-2.6c-1.4-1.8-0.9-1.6-2-2.3c-0.1-0.1-0.1-0.1-0.3-0.2c0,0,0,0-0.1,0
											c-0.5-0.2-1.7-4-1.8-4.6c0-0.3,0.3-2.3,0.6-3.2c0.2,0.4,1.1,0.8,1.4,1c0.4,0.6,1.4,1.1,1.8,1.6c1,1,1.9,2,2.9,3
											c0.6,0.6,0.8,1.5,1,2.3c0.1,0.2,0.2,0.3,0.3,0.3c0.2,0.1,0.3,0.1,0.5-0.1l0,0l0,0c2.8-2.8,11.2-5.2,9.8-10.2
											c-0.7-2.4-3.1-4.2-4.7-5.9c-0.6-0.7-1.2-1.5-1.8-2.2c-2.3-2.9-2.2-2.9,0.8-3.8h0.1l0,0c1-0.5,1.9-1,2.9-1.6
											c0.3-0.2,0.3-0.5,0.1-0.8l0,0l0,0c0,0,0,0,0.1,0c0.6,0.5,0.9,2.4,0.8,2.6c0,0.4-1.3,0.9-1.3,1.3c-0.1,1.3-0.6,1,0.4,2.2
											c1.5,1.7,4.2-0.7,4.9-2.2c0.1-0.2,0.1-0.5-0.1-0.6c-4.3-3.5,4.5-3.2,5.9-3.7c2.4-0.7,4.1-2.9,6-4.5c2.8-2.4,4.7-4.2,6-7.5
											c1.2-3.4,0.2-3.6-0.2-5.4c-0.1-0.6-0.2-1.2-0.3-1.7c0-0.4,0-0.7-0.1-1c0-0.1-0.1-0.2-0.2-0.4c-0.2-0.9-0.5-1.8-1.2-3.1
											c-1.1-2.3-1.4-2.3,0.6-3.8c1.3-1,2.9-1.3,4.1-2.5c0.2-0.2,0.2-0.5,0-0.7c-0.7-0.7-1.9-0.2-2.8-0.2
											c-2.1,0.2-3.2,0.9-5.1-0.6c-1.7-1.3-1.1-0.4-0.5-1.5c0.3-0.5,2.8-2.1,2.9-2.1c3-0.6,2.4,1,2.7,3.2
											c0.1,0.4,0.5,0.4,0.7,0.3c1.3-0.6,2.1-1.1,2.8-1.8l0.1,0.1c0.2,0.1,1.6,3.4,1.9,4c0.7,1.2,1.3,1.3,1.8,2.9
											c0.3,1,0.3,2.4,1.3,3c0.1,0.1,0.4,0.1,0.5,0c1-0.8,2.2-0.2,3.1-0.9c1.5-1.2,3.1-4.4,3.4-6.3c0-0.3-0.1-0.5-0.3-0.6
											c-5.3-1.2-3.6-2.1-1.7-4.6c1.1-1.4,2.2-5.2,4.6-3.4c0.2,0.1,0.5,0.1,0.6-0.1c1.3-1.3,2.7-2.4,4-3.5
											c0.1-0.1,0.3-0.2,0.4-0.3c1.1-0.9,1.7-1.3,1.7-1.3s0.1-0.1,0.3-0.3c1.7-1.4,3.4-2.9,5-4.7c1.1-1.3,3.2-3.3,3.7-4.9
											c0.3-1-0.5-3.1-0.3-4c0.4-3.1,2.8-4.8,0.9-7.1c-0.8-0.9-2.8-1.1-3.7-1.4c-1.9-0.6-1,2-1.8-1.7c0-0.2-0.3-0.4-0.5-0.4
											c-1.6,0.1-3,1.1-2.5-0.3c0.4-1,2.9-2.4,3.8-3.2c3.6-3,5.8-7.7,11.3-7.3c2.1,0.1,4.1,1.2,6.2,1.1c1.6-0.1,1.5-2.4,3.8-1.2
											c0.2,0.1,1.4,2.1,1.2,2c-0.4-0.1,0.3,0.8,0.4,0.8c0.1,0.1,0.4,0.1,0.5,0c1-0.7,3.3-1.5,3.7-2.8c0,0.2,0,0.4,0.1,0.5
											c1.3,1.2,3.1-0.4,3.4-1.7c0.1-0.3-0.2-0.6-0.5-0.6c-1.5,0,4.5-3.9,6.1-3.7c1.9,0.2,1,0.6,2.2,2.3c0.1,0.2,0.3,0.3,0.6,0.2
											c1.9-0.5,3.2-2.8,5.1-3.6c0.7-0.3,0.9-0.7,1-0.9c0,0.1,0,0.1,0,0.2c0.3,3.8-7.8,6.9-10.1,9c-2.5,2.2-5.7,6.2-5.6,9.5
											c0,1.6,0.8,11.1,2.6,11.7c0.2,0.1,0.4,0,0.6-0.2c0.8-1.3,1-3.3,2.8-3.8c0.2-0.1,0.3-0.3,0.4-0.5c0.1-1.4,2.4-1.2,3.3-2
											c1.5-1.4-1.5-2.8,2.3-3.3c0.3,0,0.6-0.3,0.5-0.6c-0.4-1.3-2.1-4.7,1-3.7c0.3,0.1,0.7-0.2,0.6-0.5c-0.1-1.7,0-3.3,0.7-4.9
											c0.1-0.3,0.1-0.5-0.2-0.7c-3.7-2.5,7.4-4.6,6.6-4.6c0.8,0,1.8,0.3,2.6,0.3c1.5,0.1,2.2,0.3,3.7-0.2
											c1.6-0.6,3.1-2.4,4.7-3.2c2.1-0.9,4.4-1.4,6.6-2.2c0.8-0.3,2.1-0.6,3.2-1.1c0.1,0.2,0.4,0.4,0.7,0.2s0.7-0.4,0.8-0.7
											s0-0.4-0.1-0.5c0.6-0.7,0.7-1.5,0.1-2.7c-0.3-0.5-1.3-0.5-1.4-0.7c-1.5-3,0.4-1.9,3.2-3c0.3-0.1,0.4-0.3,0.3-0.6l0,0
											c0.1,0,0.2,0,0.3,0c0,0.1,0.1,0.1,0.2,0.1c1.9,0.9,3.1,0.1,5,0.9c2,0.8,2.4,2.1,4.7,2.6
											C602.3,174.6,603.3,174.9,604.2,174z M403.3,159.5L403.3,159.5c0.1,0.1,0.1,0.1,0.1,0.2
											C403.4,159.6,403.3,159.6,403.3,159.5z M294.8,194.2c0.1-0.3,0.1-0.6,0-0.9c0.1,0.1,0.2,0.3,0.3,0.6
											C294.9,193.9,294.8,194,294.8,194.2z M311.6,172.2h0.1C311.6,172.2,311.6,172.2,311.6,172.2
											C311.5,172.2,311.6,172.2,311.6,172.2z M303.8,181.4L303.8,181.4C303.8,181.4,303.8,181.5,303.8,181.4
											C303.8,181.5,303.8,181.4,303.8,181.4z M315.2,172.4c-0.5,1.1-4,3.2-3.4,4.4l0,0c-0.2-0.3-0.5-0.3-0.8-0.1
											c-1.3,1.1-2.8,5.6-1.4,7c-0.2-0.2-0.4-0.2-0.6-0.1c-2.4,1.1-1.3,0.2-2.6,0.8c-0.1,0.1-0.2,0.2-0.2,0.3
											c-0.8-1.5-1.8-3.2-1.8-3.7c0-4.6,5.1-5,7.7-7.3c0.3-0.2,0.1-0.8-0.2-0.8c0.1-0.3,0.2-0.6,0.3-1c0.2-0.3,0-0.6-0.3-0.7
											c0.1-0.1,0.2-0.2,0.3-0.3c0.5-0.1,1.2-0.2,1.2-0.2c2-0.4,2.9-0.4,3.2-0.2c0,0.1,0.1,0.1,0.1,0.2
											C316.7,171,315.5,171.9,315.2,172.4z M256.7,286.9C256.6,286.9,256.6,286.9,256.7,286.9c-0.1-0.6-0.2-1.2-0.2-1.7
											c0.3,0.5,0.5,1.1,0.7,1.7C257,286.8,256.8,286.9,256.7,286.9z M293.6,336.7C293.5,336.7,293.5,336.7,293.6,336.7
											C293.5,336.7,293.5,336.7,293.6,336.7L293.6,336.7z M326.4,155.9C326.4,155.9,326.4,156,326.4,155.9
											c-0.1,0.2-0.3,0.3-0.5,0.4C325.9,156.2,326.1,156,326.4,155.9z M324.5,184.2C324.6,184.2,324.6,184.2,324.5,184.2
											C324.6,184.2,324.6,184.2,324.5,184.2L324.5,184.2c0.3-0.3,0.5-0.6,0.8-0.8c0.3-0.8,0.9-1.4,1.7-1.8c0.6,0.5,1,1,1.3,1.8
											c-0.3,0.8-1.6,1.4-3.2,1.7c0.3-0.2,0.3-0.7-0.2-0.8C324.8,184.2,324.7,184.2,324.5,184.2z M301.3,302.9
											c-0.2,0.1-0.9,0.4-1.1,0.5c0.3-0.4,0.6-0.7,0.9-1.1c0.1,0.2,0.3,0.3,0.4,0.4C301.4,302.9,301.4,302.9,301.3,302.9z
											 M306.8,352.1c-0.1-1.6-0.1-3.3-0.1-4.9c0.1-0.1,0.1-0.2,0.2-0.2c0,0.1-0.1,0.1-0.1,0.2c-0.2,1,0.3,2.2,0.3,3.2
											c0,0.5,0.1,1.3,0.3,2C307.3,352.3,307,352.2,306.8,352.1z M307.6,248.3c-0.3-0.3-0.5-0.7,0-1.1
											C307.6,247.6,307.6,247.9,307.6,248.3z M311.1,337.1L311.1,337.1c0.1-0.1,0.1,0,0.2,0
											C311.3,337.1,311.2,337.1,311.1,337.1z M335.9,242.9c-0.5,0.8-0.9,1.6-1.4,2.3c-0.2,0-0.3,0.1-0.4,0.2
											c-0.3,0.6-1.3,1.5-1.3,2.2c0,0.2,0.1,0.3,0.1,0.4c-0.1,0-0.3,0-0.5,0c-0.3,0-0.6,0.3-0.5,0.6c0.4,1.2,0.9,2.3,1.3,3.5
											c-0.1,0-0.2,0-0.3,0c-0.4-1.3-0.9-2.6-1.2-3.8c0-0.2-0.1-0.3-0.3-0.3h-0.1l0,0c0,0,0,0-0.1,0c-1.2,0-2.4-0.1-3.5-0.3
											c-0.1-0.1-0.2-0.1-0.4,0l0,0c0,0,0,0-0.1,0l0,0c-0.6,0.3-1.1,0.4-1.6,0.8c-0.1,0.1-0.1,0.5-0.2,0.5c0.2-0.1-0.2,0.4,0,0.3
											c-0.4,0.2-6.6-1.6-8.3-1.9c-2.6-1.2-7.7-5.3-9.9-1.5c-1.3,2.3,1.7,3.5-2.1,3.1c-2-0.2-2-1-3.6-1.6
											c-2.5-1.1-5.1-1.9-7.3-3.6l0,0c-0.5-0.4-1-0.9-1.6-1.3c-0.1-0.1-0.3-0.2-0.5-0.1c-1,0.4-0.3,0.2,0.2-0.6
											c0.4-0.8,0.3-1.3,0.1-2.1c-0.2-1-0.6-3.5-1.9-3.7c-0.7-0.1-0.9,0.4-1.4,0.6c-0.2,0.1-0.5,0.2-0.8,0.2c0,0,0,0-0.1,0
											c-2.7,0.1-4.8-0.7-7.3-0.1c-4.5,1-8.8,2.8-13.3,3.8c-0.2,0.1-0.3,0.3-0.3,0.5c-1.2,0.4-2.8,1.1-2.6-0.9l0,0
											c1.1-3.7,3.4-0.8,5-1.3c1-0.3,2.1-1.6,2.9-2.1s0.9,0.4,1.4-0.8c0.4-0.9-0.1-2.3-0.1-3.2c0-0.2-0.1-0.4-0.4-0.5
											c-2.6-0.6,3.2-1.8,4-1.9c0.4-0.1,1.3,0.3,1.7,0c0.8-0.5,0.7-0.8,0.7-1.7c0-4.5,1.6-3,4.4-3c0,0,0,0,0.1,0
											c1.6-0.2,1.4-1,2.4-1.6c0.5-0.3-0.8-1.2,0.6-0.4c0.4,0.3,0.7,0.4,0.8,0.5c-0.2-0.1-0.5-0.2-0.4,0c0.1,0.3-0.1,1.2-0.1,1.5
											s0.2,0.5,0.5,0.5c2.1,0.1,12.8,4.7,10.2,8.3c-0.1,0.2-0.1,0.5,0.1,0.6c0.4,0.3-3.1-0.2-3.8-0.1c-0.3,0-0.5,0.2-0.5,0.5
											c-0.2,1.6,4.3,3.8,5.5,3.9c0.2,0,0.4,0,0.5-0.1c1.1-1.4,0.8-2.6,2.5-3.7c0.9-0.6,2.3-1.2,2.1-2.7c0-0.2-0.1-0.4-0.2-0.5
											c0.5,0,0.7,0,1.2-0.4c0.2-0.1,0.2-0.4,0.1-0.6c-0.1-0.2-0.2-0.3-0.4-0.5c0-0.1-0.1-0.1-0.1-0.1l0,0
											c-1.4-1.1-3.1-1.7-4.6-2.5c-2-1.1-1.7-1.5-2.6-3.1c-0.3-0.6-2-2.2-2.5-2.8c0.3,0.1,0.7-1.2,1-1.3l0,0c0,0,0,0,0.1,0
											c0.1,0.5,0.2,1,0.6,1.3c0.3,0.3,1,0.4,1.4,0.7c0.6,0.4,1.2,0.9,1.7,1.3c0.7,0.6,1.3,0.9,2.2,1.3c0.3,0.1,0.6,0.3,0.9,0.4
											c0.2,0.1,0.4-0.1,0.6,0c0.5,0.2,1.1,0.9,1.6,1l0,0c0,0.3,0.1,0.6,0.3,0.9c0.1,0.2,0.3,0.4,0.5,0.6c0.3,0.7,0.6,1.2,0.6,2
											c0,1.2,0.2,1.7,0.7,2.6c0.6,0.1,0.9,0.3,0.9,0.7s0,0.7,0,1.1c0.1,0.4-0.1,0.5,0.1,0.8c0.6,0.9,0.7,0,1.3,0.8
											c0.7,0.8,0.2,1.2,0.6,1.7c0.6,0.7,1.8,1.3,2.6,1.6c0,0,0.1,0,0.2,0c0,0,0,0.1,0.1,0.1c0.4,1.6,1.8,3.3,2.3,4.8
											c0.1,0.2,0.3,0.4,0.5,0.4c1.3,0,4.6-0.9,4.2-2.6c0.2-0.3,0.1-0.7-0.2-0.8c-0.1,0-0.2,0-0.2,0c-0.7-0.7-1.5-0.2-2.5-0.2
											c-1.5,0-2-0.4-2.5-1c-0.5-1.3-0.6-2.6,1-3c0.1,0.2,0.3,0.4,0.4,0.6c0.2,0.3,0.5,0.7,0.7,1c0.5,0.5,0.6,0.8,1.3,0.9
											c0.2,0,0.3-0.1,0.4-0.2c0.3-0.4,0.5-0.8,0.7-1.2c0.1-0.2,0.2-0.4,0.1-0.6c-0.5-0.9-1.7-1.7-2.3-2.5
											c-0.4-0.6-0.8-0.9-1.2-1.4c-0.6-0.7-1.2-1.4-1.8-2.1c1.8,0.1,3.4-0.9,4.5-2.6c0-0.1,0.1-0.1,0.1-0.2
											c0.2-0.1,0.5-0.1,0.7-0.2c1-0.2,1.9-0.1,2.9-0.2c0.1,0.5,0.3,1,0.4,1.4c-1.3,0.6-2.6,0.8-4.1,0.9c-0.2,0-0.4,0.1-0.5,0.4
											c-0.4,1.6,1.9,2.4,2.1,2.8c0.1,0.2,0.2,0.5,0.2,0.8v0.1c0,0.3,0.1,0.8,0.2,1.2c0.1,0.5,0.3,1.1,0.7,1.6
											c1.3,1.6,2.1,2,3.2,2.1c0.1,0.1,0.3,0.1,0.5,0.1c0.3,0,0.5,0.1,0.9,0.1c1.9,0.3,4-0.1,5.9-0.1c3-0.1,2.9-0.7,3.3,2.1
											c0,0.1,0.1,0.1,0.1,0.2l0,0c0.2,0.2,0.5,0.5,0.7,0.7l0,0C335.9,242.8,335.9,242.9,335.9,242.9z M337.7,181.2
											c-0.2,0.3-0.9,0.7-1.2,0.8c-0.4,0.1-1-0.5-1.4-0.7l0,0c0-0.2-0.1-0.4-0.1-0.5c-0.1-0.6-0.2-1.2-0.3-1.8
											c0.4-0.2,0.7-0.4,1.1-0.6c0.5,0.4,1,0.7,1.4,1.2C337.6,180,338,180.7,337.7,181.2z M341.2,190.1c0,0.1-0.1,0.2-0.1,0.3
											c-0.2-0.2-0.5-0.3-0.7-0.3c0,0-0.1,0-0.2,0V190c0.1-0.2,0.2-0.4,0.4-0.7c0.3,0,0.7,0,1,0
											C341.5,189.5,341.3,189.8,341.2,190.1z M347.1,167.8L347.1,167.8L347.1,167.8C347.2,167.8,347.1,167.8,347.1,167.8z
											 M349.7,193.8c-0.4-0.7-0.6-1.5-0.9-2.3c0.1-0.1,0.1-0.1,0.2-0.2c0.1,0.3,0.3,0.5,0.4,0.8c0.4,0.7,0.5,1.3,0.4,2
											C349.8,194,349.8,193.9,349.7,193.8z M367.5,228C367.5,228,367.5,228.1,367.5,228C367.4,228,367.7,228,367.5,228z
											 M366.8,228.7c0.1-0.1,0.3-0.2,0.4-0.4c0.1-0.1,0.1-0.1,0.2-0.2h0.1v0.1c-0.1,0.3-0.2,0.7-0.1,1s0.3,0.4,0.5,0.5l0.1,0.1
											c0.1,0.1,0.2,0.1,0.3,0.2l-0.1,0.1c-0.1,0-0.2,0.1-0.3,0.2c-0.5-0.2-0.9-0.6-1-1C366.7,229,366.7,228.9,366.8,228.7z
											 M360.9,230.1c-0.1,0-0.1,0-0.2,0c-0.5-1.2-1.3-2.3-1.8-3.4c-0.2-0.4-0.9-1.3-1.4-1.9c0.3,0,0.6-0.2,0.5-0.6
											c-0.8-1.8-0.6-3.6,0.5-5.6c0.9-0.5,5.6-2.6,5.9-0.6c0,0-1.6,0.6-1.6,0.7c-0.8,0.8-2.8,0.9-2.8,2.4c0,1.6,5.4,4.8,5.3,4.9
											c-0.1,0.1-0.1,0.2-0.1,0.3c-0.8,0.6-1.3,1.6-1.7,3.5c-1,4.4,3.6-0.1,3.2,5.6c-0.2,2.6,0,3.8-3.2,2.6
											c-1.3-0.5-4.7-4.5-5.6-4.4c0.1,0,0.2-0.1,0.3-0.1c1.4-0.2,2.7-0.9,3.2-2.6C361.5,230.5,361.2,230.2,360.9,230.1z
											 M371.9,257.6c-0.9-0.1-2.1,1.4-2.4,2.1c-0.7,0.9-1.4,1.8-2.4,2.4c-0.8,0.4-1.5,0.2-2.3-0.2l0,0c-2.4-1.8-3-4.8-5-6.8
											c0-0.1,0-0.1-0.1-0.2c-0.8-0.9-1.1-1.9-0.9-3.2c2.6-2.1,6,5.6,8.2,6.3c1,0.4,1.4,0.2,2.4,0.1c0.5,0,1.2-0.9,1.6-0.8
											c1.1,0.1,1.3,0.2,1.4,0.4C372.4,257.8,372.2,257.7,371.9,257.6z M372.2,256.3c0.1-0.1,0.3-0.1,0.4-0.1
											C372.5,256.2,372.4,256.3,372.2,256.3z M380.4,222C380.4,222.1,380.4,222.1,380.4,222c0,0.1,0,0.1-0.1,0.1
											c-2.1,5.3-4.9-1.6-4.8-1.9C377.3,218.1,382.6,218.9,380.4,222z M389.1,239l0.4-0.2c-0.3,0.2-0.6,0.2-1,0.2H389.1z
											 M386.5,238.2c-0.1,0-0.1,0.1-0.2,0.2c0.1-0.2,0.3-0.4,0.4-0.6c0,0.1,0,0.3,0,0.4C386.7,238.1,386.6,238.2,386.5,238.2z
											 M392.2,238.8c-1.1,0.3-2.2,0.8-3.3,1c-1.1,0.2-1.3,0.1-1.4-0.4c2.6,0,3.8-0.6,4.5-1.8c0.3,0,0.5,0,0.7-0.1
											c0,0.3,0.1,0.6,0.1,0.9C392.7,238.6,392.5,238.7,392.2,238.8z M393.4,209.3c0,0-0.5-0.2-0.5,0c0,0,0.2-0.3,0.3-0.4
											c0.3,0,0.5,0,0.8,0.1c0,0,0,0.1-0.1,0.1c0,0.1-0.1,0.2-0.1,0.3C393.9,209.3,393.5,209.3,393.4,209.3z M394,209.4
											C394,209.2,394.1,209.4,394,209.4L394,209.4z M395.7,241.3c-0.1,0-0.2,0.1-0.3,0.2c-0.2,0.5-0.5,0.9-0.7,1.3
											c0-0.3,0-0.7-0.1-1.1c-0.1-0.6-0.5-1.5-0.8-2.4c0.2-0.1,0.4-0.2,0.6-0.3c0.2,0.4,0.6,0.8,1.3,0.9c0.1,0,0.2,0,0.4,0
											C395.9,240.5,395.8,240.9,395.7,241.3z M407.6,160.8c0.6,0.5,0.7,0.9,1.2,1.5c1,1.2-0.6-0.6-0.8-0.8
											c-0.4-0.4-0.7-0.8-0.9-1C407.3,160.5,407.5,160.6,407.6,160.8z M405.1,159.7c-0.2,0-0.4,0-0.6,0.1l0,0
											c0.1-0.2,0.1-0.4-0.1-0.6C404.5,159.4,404.8,159.5,405.1,159.7z M413.3,217.4c-1.9-0.4-4.4-1-6.3-0.5
											c-1.8,0.5-3.3,1.5-4.3,3c0-0.1-0.1-0.2,0-0.3c0.1-1,1.8-1.8,2.5-2.1c0.6-0.3,2.7-1,2.7-1.5c0,0.3,0.2,0.5,0.5,0.5
											C409.6,216.6,412.1,216.5,413.3,217.4C413.4,217.4,413.3,217.4,413.3,217.4z M416.8,150.4c0.5,0.1,1.1,0.3,1.4,0.6
											C417.7,150.9,417.3,150.6,416.8,150.4z M418.4,153.5c0-0.2,0.3-0.6,0.5-1.1c0.1,0.6-0.2,1,0.1,1.7
											C418.7,153.2,418.3,156.3,418.4,153.5z M427.6,144.5c-0.2,0.4-0.4,0.7-0.5,0.7s-0.2,0-0.3,0.1
											C427.1,145,427.4,144.8,427.6,144.5z M428.8,162.8c-0.5,0.6-1.4,1.2-1.9,0.1c0-0.1-0.1-0.1-0.1-0.1s0,0,0.1-0.1
											c0.1-0.2,0.3-0.3,0.4-0.5c0.4-0.4,0.8-0.7,1.1-1c0.5,0.1,0.9,0.2,1.4,0.3C429.4,161.9,429.1,162.3,428.8,162.8z
											 M447.3,266.7c0-0.1-0.1-0.1-0.1-0.2C447.3,266.5,447.3,266.6,447.3,266.7C447.4,266.7,447.3,266.7,447.3,266.7z
											 M464.3,201.7c-1,2.4-3.7,3.9-6.2,4.5c-0.5,0.1-1.1,0.4-0.3-0.1c0.1-0.1,0.5-0.2,0.8-0.4c0.4-0.2,0.7-0.3,1-0.6
											c0.9-0.8,1.8-1.8,2.5-2.7c0.6-0.7,1.2-1.5,1.8-2.3c0.1-0.2,0.5-0.5,0.6-0.7c0.1-0.1,0.1-0.1,0.2-0.2
											c0.1,0,0.2-0.1,0.3-0.1c0.4-0.5,0.8-1,1.2-1.6C465.5,198.9,464.9,200.2,464.3,201.7z M483.1,240c-0.1,0.1-0.1,0.3-0.1,0.4
											c0-0.1,0-0.1,0-0.2C483,240.2,483,240.1,483.1,240z M500.9,238c-0.1,0.4-0.3,0.8-0.8,1.3
											C500.4,238.9,500.6,238.5,500.9,238z M499.1,148.8c-0.1-0.3-0.2-0.5-0.2-0.6c0.2,0.3,0.3,0.6,0.4,0.9
											C499.3,149,499.2,149,499.1,148.8z M508.7,152.4L508.7,152.4c0.2,0,0.3,0,0.5-0.1C508.9,152.4,508.8,152.4,508.7,152.4z
											 M553.2,155.7C553.1,155.7,553.1,155.6,553.2,155.7c0-0.1,0.1-0.1,0.2-0.1C553.3,155.6,553.2,155.7,553.2,155.7z
											 M547.2,205.6c0.1,0.4,0.1,0.8,0.2,1.3C547.3,206.5,547.3,206.1,547.2,205.6z M555,200.5c0-0.3,0.2-0.5,0.4-0.6h0.1
											C555.4,200.1,555.2,200.3,555,200.5z M590.9,170.5c-0.1-0.6,0.2-0.7,0.2-0.2c0,0,0,0.1,0,0.2
											C591.1,170.5,591,170.5,590.9,170.5z"/>
									</g>
								</g>
							</g>
						</g>
					</g>
				</g>
			</g>
			<g>
				<g>
					<defs>
						<rect id="SVGID_15_" width="600" height="400"/>
					</defs>
					<clipPath id="SVGID_16_">
						<use xlink:href="#SVGID_15_"  style="overflow:visible;"/>
					</clipPath>
					<rect x="-2.7" y="-1.9" class="st13" width="604.3" height="402.9"/>
				</g>
			</g>
			<rect class="st14" width="600" height="400"/>
			<rect class="st14" width="600" height="400"/>
			
				<radialGradient id="SVGID_17_" cx="308.4" cy="-49.4" r="79.0029" gradientTransform="matrix(1 0 0 1 0 280)" gradientUnits="userSpaceOnUse">
				<stop  offset="0" style="stop-color:#F7931A"/>
				<stop  offset="1" style="stop-color:#F77F1A"/>
			</radialGradient>
			<circle class="st15" cx="308.4" cy="230.6" r="78.6"/>
			<rect class="st14" width="600" height="400"/>
			
				<radialGradient id="SVGID_18_" cx="308.4" cy="-49.4" r="52.4" gradientTransform="matrix(1 0 0 1 0 280)" gradientUnits="userSpaceOnUse">
				<stop  offset="0" style="stop-color:#F7DB0B"/>
				<stop  offset="0.2577" style="stop-color:#F9C80F"/>
				<stop  offset="1" style="stop-color:#FF9618"/>
			</radialGradient>
			<circle class="st16" cx="308.4" cy="230.6" r="52.4"/>
			<rect class="st14" width="600" height="400"/>
			<path class="st17" d="M308.4,171.9c-32.4,0-58.6,26.2-58.6,58.6s26.2,58.6,58.6,58.6s58.6-26.2,58.6-58.6
				C367,198.2,340.8,171.9,308.4,171.9z M308.7,283.2c-29,0-52.4-23.5-52.4-52.4s23.5-52.4,52.4-52.4s52.4,23.5,52.4,52.4
				S337.7,283.2,308.7,283.2z"/>
			<rect class="st14" width="600" height="400"/>
			<path class="st18" d="M324.8,231.6c4.8-2.5,7.5-7.3,7.5-13.5c0-7.9-5.6-12.9-15.7-14.1v-7h-6.9v6.7c-0.3,0-0.7,0-1,0V197h-6.9
				v6.8c-6.6,0.2-13.7,0.4-13.8,0.4h-0.9v6.5l6,0.7v45.8l-6.1,1.3v5.7h1.2c1.3,0,7.9,0.2,13.7,0.3v5.4h6.9v-5.2l0,0c0.4,0,0.7,0,1,0
				v5.2h6.9v-5.6c12.8-1.5,19.5-7.9,19.5-18.3C336.1,239.1,331.5,233.3,324.8,231.6z M304.7,210.7c1.5-0.3,3.8-0.3,5.1-0.3h0.5
				c4.1,0,11,1.2,11,9c0,6.9-3.4,10.4-10.1,10.4h-1c-1.7,0-3.8,0-5.5-0.2V210.7z M312.3,258.2c-2.8,0-6.2-0.4-7.8-0.9v-20.5
				c1.8-0.2,3.9-0.2,6-0.1h0.1c0.6,0,1.3,0,1.9,0c7.5,0,11.4,3.7,11.4,10.6C324,254.2,319.8,258.2,312.3,258.2z"/>
			<path class="st19" d="M324.8,228.6c4.8-2.5,7.5-7.3,7.5-13.5c0-7.9-5.6-12.9-15.7-14.1v-7h-6.9v6.7c-0.3,0-0.7,0-1,0V194h-6.9
				v6.8c-6.6,0.2-13.7,0.4-13.8,0.4h-0.9v6.5l6,0.7v45.8l-6.1,1.3v5.7h1.2c1.3,0,7.9,0.2,13.7,0.3v5.4h6.9v-5.2l0,0c0.4,0,0.7,0,1,0
				v5.2h6.9v-5.6c12.8-1.5,19.5-7.9,19.5-18.3C336.1,236.1,331.5,230.3,324.8,228.6z M304.7,207.7c1.5-0.3,3.8-0.3,5.1-0.3h0.5
				c4.1,0,11,1.2,11,9c0,6.9-3.4,10.4-10.1,10.4h-1c-1.7,0-3.8,0-5.5-0.2V207.7z M312.3,255.2c-2.8,0-6.2-0.4-7.8-0.9v-20.5
				c1.8-0.2,3.9-0.2,6-0.1h0.1c0.6,0,1.3,0,1.9,0c7.5,0,11.4,3.7,11.4,10.6C324,251.2,319.8,255.2,312.3,255.2z"/>
			<rect class="st14" width="600" height="400"/>
			
				<radialGradient id="SVGID_19_" cx="308.4" cy="-49.4" r="89.0029" gradientTransform="matrix(1 0 0 1 0 280)" gradientUnits="userSpaceOnUse">
				<stop  offset="0" style="stop-color:#F7931A"/>
				<stop  offset="1" style="stop-color:#F77F1A"/>
			</radialGradient>
			<circle class="st20" cx="308.4" cy="230.6" r="88.6"/>
			<rect class="st14" width="600" height="400"/>
			
				<radialGradient id="SVGID_20_" cx="308.4" cy="-49.4" r="83.8029" gradientTransform="matrix(1 0 0 1 0 280)" gradientUnits="userSpaceOnUse">
				<stop  offset="0" style="stop-color:#F7931A"/>
				<stop  offset="1" style="stop-color:#F77F1A"/>
			</radialGradient>
			<circle class="st21" cx="308.4" cy="230.6" r="83.4"/>
			<g>
				<g>
					<defs>
						<rect id="SVGID_21_" width="600" height="400"/>
					</defs>
					<clipPath id="SVGID_22_">
						<use xlink:href="#SVGID_21_"  style="overflow:visible;"/>
					</clipPath>
					<g class="st22">
						
							<radialGradient id="SVGID_23_" cx="7.0547" cy="79.7" r="10.4696" gradientTransform="matrix(1 0 0 1 0 280)" gradientUnits="userSpaceOnUse">
							<stop  offset="0" style="stop-color:#FFA018"/>
							<stop  offset="1" style="stop-color:#FF9118"/>
						</radialGradient>
						<path class="st23" d="M7.1,349.2c-5.8,0-10.5,4.7-10.5,10.5s4.7,10.5,10.5,10.5s10.5-4.7,10.5-10.5
							C17.5,353.9,12.8,349.2,7.1,349.2z M7.1,369.1c-5.2,0-9.4-4.2-9.4-9.4c0-5.2,4.2-9.4,9.4-9.4s9.4,4.2,9.4,9.4
							S12.3,369.1,7.1,369.1z"/>
						
							<radialGradient id="SVGID_24_" cx="7.606" cy="79.7106" r="5.5527" gradientTransform="matrix(1 0 0 1 0 280)" gradientUnits="userSpaceOnUse">
							<stop  offset="0" style="stop-color:#FFA018"/>
							<stop  offset="1" style="stop-color:#FF9118"/>
						</radialGradient>
						<path class="st24" d="M10,359.4c0.9-0.5,1.3-1.3,1.3-2.4c0-1.4-1-2.3-2.8-2.5v-1.2H7.3v1.2c-0.1,0-0.1,0-0.2,0v-1.2H5.9v1.2
							c-1.2,0-2.5,0.1-2.5,0.1H3.2v1.2l1.1,0.1v8.2l-1.1,0.2v1h0.2c0.2,0,1.4,0,2.4,0.1v1H7v-0.9l0,0c0.1,0,0.1,0,0.2,0v0.9h1.2v-1
							c2.3-0.3,3.5-1.4,3.5-3.3C12,360.7,11.2,359.7,10,359.4z M6.4,355.6c0.3-0.1,0.7-0.1,0.9-0.1h0.1c0.7,0,2,0.2,2,1.6
							c0,1.2-0.6,1.9-1.8,1.9H7.4c-0.3,0-0.7,0-1,0V355.6z M7.8,364.1c-0.5,0-1.1-0.1-1.4-0.2v-3.7c0.3,0,0.7,0,1.1,0l0,0
							c0.1,0,0.2,0,0.3,0c1.3,0,2,0.7,2,1.9C9.8,363.4,9.1,364.1,7.8,364.1z"/>
					</g>
				</g>
			</g>
			<g>
				<g>
					<defs>
						<rect id="SVGID_25_" width="600" height="400"/>
					</defs>
					<clipPath id="SVGID_26_">
						<use xlink:href="#SVGID_25_"  style="overflow:visible;"/>
					</clipPath>
					<g class="st25">
						
							<radialGradient id="SVGID_27_" cx="120.9" cy="107.9768" r="9.2684" gradientTransform="matrix(1 0 0 1 0 280)" gradientUnits="userSpaceOnUse">
							<stop  offset="0" style="stop-color:#FFA018"/>
							<stop  offset="1" style="stop-color:#FF9118"/>
						</radialGradient>
						<path class="st26" d="M120.9,378.7c-5.1,0-9.3,4.1-9.3,9.3s4.1,9.3,9.3,9.3s9.3-4.1,9.3-9.3S126,378.7,120.9,378.7z
							 M120.9,396.3c-4.6,0-8.3-3.7-8.3-8.3s3.7-8.3,8.3-8.3s8.3,3.7,8.3,8.3S125.5,396.3,120.9,396.3z"/>
						
							<radialGradient id="SVGID_28_" cx="121.3921" cy="107.9768" r="4.912" gradientTransform="matrix(1 0 0 1 0 280)" gradientUnits="userSpaceOnUse">
							<stop  offset="0" style="stop-color:#FFA018"/>
							<stop  offset="1" style="stop-color:#FF9118"/>
						</radialGradient>
						<path class="st27" d="M123.5,387.7c0.8-0.4,1.2-1.1,1.2-2.1c0-1.3-0.9-2-2.5-2.2v-1.1h-1.1v1.1c-0.1,0-0.1,0-0.2,0v-1.1h-1.1
							v1.1c-1,0-2.2,0.1-2.2,0.1h-0.1v1l0.9,0.1v7.2l-1,0.2v0.9h0.2c0.2,0,1.3,0,2.2,0.1v0.8h1.1V393l0,0c0.1,0,0.1,0,0.2,0v0.8h1.1
							v-0.9c2-0.2,3.1-1.2,3.1-2.9C125.3,388.9,124.5,387.9,123.5,387.7z M120.3,384.4c0.2-0.1,0.6,0,0.8,0h0.1
							c0.6,0,1.7,0.2,1.7,1.4c0,1.1-0.5,1.6-1.6,1.6h-0.2c-0.3,0-0.6,0-0.9,0L120.3,384.4z M121.5,391.9c-0.4,0-1-0.1-1.2-0.1v-3.2
							c0.3,0,0.6,0,0.9,0l0,0c0.1,0,0.2,0,0.3,0c1.2,0,1.8,0.6,1.8,1.7C123.4,391.2,122.7,391.9,121.5,391.9z"/>
					</g>
				</g>
			</g>
			<g>
				<g>
					<defs>
						<rect id="SVGID_29_" width="600" height="400"/>
					</defs>
					<clipPath id="SVGID_30_">
						<use xlink:href="#SVGID_29_"  style="overflow:visible;"/>
					</clipPath>
					<g class="st28">
						
							<radialGradient id="SVGID_31_" cx="574.9327" cy="119.4" r="14.9095" gradientTransform="matrix(1 0 0 1 0 280)" gradientUnits="userSpaceOnUse">
							<stop  offset="0" style="stop-color:#FFA018"/>
							<stop  offset="1" style="stop-color:#FF9118"/>
						</radialGradient>
						<path class="st29" d="M574.9,384.5c-8.2,0-14.9,6.7-14.9,14.9c0,8.2,6.7,14.9,14.9,14.9s14.9-6.7,14.9-14.9
							C589.8,391.2,583.2,384.5,574.9,384.5z M575,412.8c-7.4,0-13.3-6-13.3-13.3c0-7.4,6-13.3,13.3-13.3c7.4,0,13.3,6,13.3,13.3
							S582.4,412.8,575,412.8z"/>
						
							<radialGradient id="SVGID_32_" cx="575.7172" cy="119.3941" r="7.9019" gradientTransform="matrix(1 0 0 1 0 280)" gradientUnits="userSpaceOnUse">
							<stop  offset="0" style="stop-color:#FFA018"/>
							<stop  offset="1" style="stop-color:#FF9118"/>
						</radialGradient>
						<path class="st30" d="M579.1,398.9c1.2-0.6,1.9-1.8,1.9-3.4c0-2-1.4-3.3-4-3.6v-1.8h-1.7v1.7c-0.1,0-0.2,0-0.3,0v-1.7h-1.7
							v1.7c-1.7,0-3.5,0.1-3.5,0.1h-0.2v1.6l1.5,0.2v11.6l-1.6,0.3v1.5h0.3c0.3,0,2,0.1,3.5,0.1v1.4h1.7v-1.3l0,0c0.1,0,0.2,0,0.3,0
							v1.3h1.7v-1.4c3.2-0.4,5-2,5-4.6C582,400.8,580.8,399.3,579.1,398.9z M574,393.6c0.4-0.1,1-0.1,1.3-0.1h0.1
							c1,0,2.8,0.3,2.8,2.3c0,1.7-0.9,2.6-2.6,2.6h-0.2c-0.4,0-1,0-1.4,0L574,393.6z M575.9,405.7c-0.7,0-1.6-0.1-2-0.2v-5.2
							c0.5,0,1,0,1.5,0l0,0c0.2,0,0.3,0,0.5,0c1.9,0,2.9,0.9,2.9,2.7C578.9,404.6,577.8,405.7,575.9,405.7z"/>
					</g>
				</g>
			</g>
			<g>
				<g>
					<defs>
						<rect id="SVGID_33_" width="600" height="400"/>
					</defs>
					<clipPath id="SVGID_34_">
						<use xlink:href="#SVGID_33_"  style="overflow:visible;"/>
					</clipPath>
					<g class="st31">
						
							<radialGradient id="SVGID_35_" cx="12.6208" cy="-52.5" r="7.377" gradientTransform="matrix(1 0 0 1 0 280)" gradientUnits="userSpaceOnUse">
							<stop  offset="0" style="stop-color:#FFA018"/>
							<stop  offset="1" style="stop-color:#FF9118"/>
						</radialGradient>
						<path class="st32" d="M12.6,220.1c-4.1,0-7.4,3.3-7.4,7.4s3.3,7.4,7.4,7.4s7.4-3.3,7.4-7.4S16.7,220.1,12.6,220.1z
							 M12.7,234.1c-3.6,0-6.6-3-6.6-6.6s3-6.6,6.6-6.6s6.6,3,6.6,6.6S16.3,234.1,12.7,234.1z"/>
						
							<radialGradient id="SVGID_36_" cx="13.0092" cy="-52.5" r="3.9091" gradientTransform="matrix(1 0 0 1 0 280)" gradientUnits="userSpaceOnUse">
							<stop  offset="0" style="stop-color:#FFA018"/>
							<stop  offset="1" style="stop-color:#FF9118"/>
						</radialGradient>
						<path class="st33" d="M14.7,227.3c0.6-0.3,0.9-0.9,0.9-1.7c0-1-0.7-1.6-2-1.8v-0.9h-0.9v0.8h-0.1v-0.8h-0.9v0.9
							c-0.8,0-1.7,0-1.7,0H9.9v0.8l0.8,0.1v5.8l-0.8,0.2v0.7H10c0.2,0,1,0,1.7,0v0.7h0.9v-0.7l0,0h0.1v0.7h0.9v-0.7
							c1.6-0.2,2.5-1,2.5-2.3C16.1,228.2,15.5,227.5,14.7,227.3z M12.1,224.6c0.2,0,0.5,0,0.6,0h0.1c0.5,0,1.4,0.1,1.4,1.1
							c0,0.9-0.4,1.3-1.3,1.3h-0.1c-0.2,0-0.5,0-0.7,0V224.6z M13.1,230.6c-0.3,0-0.8-0.1-1-0.1v-2.6c0.2,0,0.5,0,0.8,0l0,0
							c0.1,0,0.2,0,0.2,0c0.9,0,1.4,0.5,1.4,1.3C14.6,230.1,14,230.6,13.1,230.6z"/>
					</g>
				</g>
			</g>
			<g>
				<g>
					<defs>
						<rect id="SVGID_37_" width="600" height="400"/>
					</defs>
					<clipPath id="SVGID_38_">
						<use xlink:href="#SVGID_37_"  style="overflow:visible;"/>
					</clipPath>
					<g class="st34">
						
							<radialGradient id="SVGID_39_" cx="525.9263" cy="-17.6" r="11.9869" gradientTransform="matrix(1 0 0 1 0 280)" gradientUnits="userSpaceOnUse">
							<stop  offset="0" style="stop-color:#FFA018"/>
							<stop  offset="1" style="stop-color:#FF9118"/>
						</radialGradient>
						<path class="st35" d="M525.9,250.4c-6.6,0-12,5.4-12,12s5.4,12,12,12s12-5.4,12-12C537.9,255.8,532.5,250.4,525.9,250.4z
							 M526,273.2c-5.9,0-10.7-4.8-10.7-10.7s4.8-10.7,10.7-10.7s10.7,4.8,10.7,10.7S531.9,273.2,526,273.2z"/>
						
							<radialGradient id="SVGID_40_" cx="526.5571" cy="-17.5834" r="6.3535" gradientTransform="matrix(1 0 0 1 0 280)" gradientUnits="userSpaceOnUse">
							<stop  offset="0" style="stop-color:#FFA018"/>
							<stop  offset="1" style="stop-color:#FF9118"/>
						</radialGradient>
						<path class="st36" d="M529.3,262c1-0.5,1.5-1.5,1.5-2.8c0-1.6-1.1-2.6-3.2-2.9V255h-1.4v1.4c-0.1,0-0.1,0-0.2,0V255h-1.4v1.4
							c-1.3,0-2.8,0.1-2.8,0.1h-0.2v1.3l1.2,0.1v9.4l-1.3,0.3v1.2h0.2c0.3,0,1.6,0,2.8,0.1v1.1h1.4v-1.1l0,0c0.1,0,0.1,0,0.2,0v1.1
							h1.4v-1.1c2.6-0.3,4-1.6,4-3.7C531.6,263.6,530.6,262.4,529.3,262z M525.2,257.7c0.3-0.1,0.8-0.1,1-0.1h0.1
							c0.8,0,2.2,0.2,2.2,1.8c0,1.4-0.7,2.1-2.1,2.1h-0.2c-0.3,0-0.8,0-1.1,0L525.2,257.7z M526.7,267.4c-0.6,0-1.3-0.1-1.6-0.2V263
							c0.4,0,0.8,0,1.2,0l0,0c0.1,0,0.3,0,0.4,0c1.5,0,2.3,0.7,2.3,2.2C529.1,266.6,528.2,267.4,526.7,267.4z"/>
					</g>
				</g>
			</g>
			<g>
				<g>
					<defs>
						<rect id="SVGID_41_" width="600" height="400"/>
					</defs>
					<clipPath id="SVGID_42_">
						<use xlink:href="#SVGID_41_"  style="overflow:visible;"/>
					</clipPath>
					<g class="st37">
						
							<radialGradient id="SVGID_43_" cx="491.2" cy="77.9" r="16.4212" gradientTransform="matrix(1 0 0 1 0 280)" gradientUnits="userSpaceOnUse">
							<stop  offset="0" style="stop-color:#FFA018"/>
							<stop  offset="1" style="stop-color:#FF9118"/>
						</radialGradient>
						<path class="st38" d="M491.2,341.5c-9.1,0-16.4,7.4-16.4,16.4s7.4,16.4,16.4,16.4c9.1,0,16.4-7.4,16.4-16.4
							S500.3,341.5,491.2,341.5z M491.3,372.6c-8.1,0-14.7-6.6-14.7-14.7s6.6-14.7,14.7-14.7s14.7,6.6,14.7,14.7
							C506,366.1,499.4,372.6,491.3,372.6z"/>
						
							<radialGradient id="SVGID_44_" cx="492.0638" cy="77.8917" r="8.7028" gradientTransform="matrix(1 0 0 1 0 280)" gradientUnits="userSpaceOnUse">
							<stop  offset="0" style="stop-color:#FFA018"/>
							<stop  offset="1" style="stop-color:#FF9118"/>
						</radialGradient>
						<path class="st39" d="M495.8,357.4c1.4-0.7,2.1-2,2.1-3.8c0-2.2-1.6-3.6-4.4-3.9v-1.9h-1.9v1.9c-0.1,0-0.2,0-0.3,0v-1.9h-1.9
							v1.9c-1.8,0-3.8,0.1-3.9,0.1h-0.3v1.8l1.7,0.2v12.8l-1.7,0.4v1.6h0.3c0.4,0,2.2,0.1,3.8,0.1v1.5h1.9v-1.5l0,0
							c0.1,0,0.2,0,0.3,0v1.5h1.9v-1.6c3.6-0.4,5.5-2.2,5.5-5.1C498.9,359.5,497.7,357.8,495.8,357.4z M490.1,351.5
							c0.4-0.1,1.1-0.1,1.4-0.1h0.1c1.1,0,3.1,0.3,3.1,2.5c0,1.9-1,2.9-2.8,2.9h-0.3c-0.5,0-1.1,0-1.5,0L490.1,351.5z M492.3,364.8
							c-0.8,0-1.7-0.1-2.2-0.3v-5.7c0.5-0.1,1.1,0,1.7,0l0,0c0.2,0,0.4,0,0.5,0c2.1,0,3.2,1,3.2,3
							C495.6,363.7,494.4,364.8,492.3,364.8z"/>
					</g>
				</g>
			</g>
			<g>
				<g>
					<defs>
						<rect id="SVGID_45_" width="600" height="400"/>
					</defs>
					<clipPath id="SVGID_46_">
						<use xlink:href="#SVGID_45_"  style="overflow:visible;"/>
					</clipPath>
					<g class="st40">
						
							<radialGradient id="SVGID_47_" cx="550.1" cy="44.4697" r="5.9057" gradientTransform="matrix(1 0 0 1 0 280)" gradientUnits="userSpaceOnUse">
							<stop  offset="0" style="stop-color:#FFA018"/>
							<stop  offset="1" style="stop-color:#FF9118"/>
						</radialGradient>
						<path class="st41" d="M550.1,318.6c-3.3,0-5.9,2.6-5.9,5.9s2.6,5.9,5.9,5.9s5.9-2.6,5.9-5.9S553.4,318.6,550.1,318.6z
							 M550.1,329.8c-2.9,0-5.3-2.4-5.3-5.3s2.4-5.3,5.3-5.3c2.9,0,5.3,2.4,5.3,5.3C555.4,327.4,553,329.8,550.1,329.8z"/>
						
							<radialGradient id="SVGID_48_" cx="550.4" cy="44.4697" r="3.1335" gradientTransform="matrix(1 0 0 1 0 280)" gradientUnits="userSpaceOnUse">
							<stop  offset="0" style="stop-color:#FFA018"/>
							<stop  offset="1" style="stop-color:#FF9118"/>
						</radialGradient>
						<path class="st42" d="M551.7,324.3c0.5-0.3,0.8-0.7,0.8-1.4c0-0.8-0.6-1.3-1.6-1.4v-0.7h-0.7v0.7h-0.1v-0.7h-0.7v0.7
							c-0.7,0-1.4,0-1.4,0h-0.1v0.7l0.6,0.1v4.6l-0.6,0.1v0.6h0.1c0.1,0,0.8,0,1.4,0v0.5h0.7v-0.5l0,0h0.1v0.5h0.7v-0.6
							c1.3-0.2,2-0.8,2-1.8C552.9,325,552.4,324.4,551.7,324.3z M549.7,322.2c0.1,0,0.4,0,0.5,0l0,0c0.4,0,1.1,0.1,1.1,0.9
							c0,0.7-0.3,1-1,1h-0.1c-0.2,0-0.4,0-0.6,0L549.7,322.2z M550.5,327c-0.3,0-0.6,0-0.8-0.1v-2.1c0.2,0,0.4,0,0.6,0l0,0
							c0.1,0,0.1,0,0.2,0c0.8,0,1.2,0.4,1.2,1.1S551.2,327,550.5,327z"/>
					</g>
				</g>
			</g>
			<g>
				<g>
					<defs>
						<rect id="SVGID_49_" width="600" height="400"/>
					</defs>
					<clipPath id="SVGID_50_">
						<use xlink:href="#SVGID_49_"  style="overflow:visible;"/>
					</clipPath>
					<g class="st43">
						
							<radialGradient id="SVGID_51_" cx="595.2" cy="-59.3" r="16.4" gradientTransform="matrix(1 0 0 1 0 280)" gradientUnits="userSpaceOnUse">
							<stop  offset="0" style="stop-color:#FFA018"/>
							<stop  offset="1" style="stop-color:#FF9118"/>
						</radialGradient>
						<path class="st44" d="M595.2,204.3c-9.1,0-16.4,7.4-16.4,16.4s7.4,16.4,16.4,16.4c9.1,0,16.4-7.4,16.4-16.4
							S604.2,204.3,595.2,204.3z M595.3,235.4c-8.1,0-14.7-6.6-14.7-14.7s6.6-14.7,14.7-14.7s14.7,6.6,14.7,14.7
							S603.4,235.4,595.3,235.4z"/>
						
							<radialGradient id="SVGID_52_" cx="596.0499" cy="-59.3" r="8.7102" gradientTransform="matrix(1 0 0 1 0 280)" gradientUnits="userSpaceOnUse">
							<stop  offset="0" style="stop-color:#FFA018"/>
							<stop  offset="1" style="stop-color:#FF9118"/>
						</radialGradient>
						<path class="st45" d="M599.8,220.1c1.4-0.7,2.1-2,2.1-3.8c0-2.2-1.6-3.6-4.4-3.9v-1.9h-1.9v1.9c-0.1,0-0.2,0-0.3,0v-1.9h-1.9
							v1.9c-1.8,0-3.8,0.1-3.9,0.1h-0.3v1.8l1.7,0.2v12.8l-1.7,0.4v1.6h0.3c0.4,0,2.2,0.1,3.8,0.1v1.5h1.9v-1.5l0,0
							c0.1,0,0.2,0,0.3,0v1.5h1.9v-1.6c3.6-0.4,5.5-2.2,5.5-5.1C602.9,222.2,601.6,220.6,599.8,220.1z M594.1,214.3
							c0.4-0.1,1.1-0.1,1.4-0.1h0.1c1.1,0,3.1,0.3,3.1,2.5c0,1.9-1,2.9-2.8,2.9h-0.3c-0.5,0-1.1,0-1.5,0V214.3z M596.3,227.6
							c-0.8,0-1.7-0.1-2.2-0.3v-5.7c0.5-0.1,1.1,0,1.7,0l0,0c0.2,0,0.4,0,0.5,0c2.1,0,3.2,1,3.2,3
							C599.5,226.5,598.4,227.6,596.3,227.6z"/>
					</g>
				</g>
			</g>
			<g>
				<g>
					<defs>
						<rect id="SVGID_53_" width="600" height="400"/>
					</defs>
					<clipPath id="SVGID_54_">
						<use xlink:href="#SVGID_53_"  style="overflow:visible;"/>
					</clipPath>
					<g class="st46">
						
							<radialGradient id="SVGID_55_" cx="36.0689" cy="6.8" r="11.6739" gradientTransform="matrix(1 0 0 1 0 280)" gradientUnits="userSpaceOnUse">
							<stop  offset="0" style="stop-color:#FFA018"/>
							<stop  offset="1" style="stop-color:#FF9118"/>
						</radialGradient>
						<path class="st47" d="M36.1,275.1c-6.5,0-11.7,5.2-11.7,11.7s5.2,11.7,11.7,11.7s11.7-5.2,11.7-11.7
							C47.8,280.4,42.5,275.1,36.1,275.1z M36.1,297.3c-5.8,0-10.5-4.7-10.5-10.5s4.7-10.5,10.5-10.5s10.5,4.7,10.5,10.5
							C46.6,292.6,41.9,297.3,36.1,297.3z"/>
						
							<radialGradient id="SVGID_56_" cx="36.6838" cy="6.8192" r="6.1934" gradientTransform="matrix(1 0 0 1 0 280)" gradientUnits="userSpaceOnUse">
							<stop  offset="0" style="stop-color:#FFA018"/>
							<stop  offset="1" style="stop-color:#FF9118"/>
						</radialGradient>
						<path class="st48" d="M39.3,286.4c1-0.5,1.5-1.4,1.5-2.7c0-1.6-1.1-2.6-3.1-2.8v-1.4h-1.4v1.3c-0.1,0-0.1,0-0.2,0v-1.3h-1.4
							v1.4c-1.3,0-2.7,0.1-2.7,0.1h-0.2v1.3l1.2,0.1v9.1l-1.2,0.3v1.1H32c0.3,0,1.6,0,2.7,0.1v1.1h1.4v-1l0,0c0.1,0,0.1,0,0.2,0v1
							h1.4V293c2.5-0.3,3.9-1.6,3.9-3.6C41.6,287.9,40.7,286.8,39.3,286.4z M35.3,282.3c0.3-0.1,0.8-0.1,1-0.1h0.1
							c0.8,0,2.2,0.2,2.2,1.8c0,1.4-0.7,2.1-2,2.1h-0.2c-0.3,0-0.8,0-1.1,0V282.3z M36.9,291.7c-0.6,0-1.2-0.1-1.5-0.2v-4.1
							c0.4,0,0.8,0,1.2,0l0,0c0.1,0,0.3,0,0.4,0c1.5,0,2.3,0.7,2.3,2.1C39.2,290.9,38.3,291.7,36.9,291.7z"/>
					</g>
				</g>
			</g>
			<g>
				<g>
					<defs>
						<rect id="SVGID_57_" width="600" height="400"/>
					</defs>
					<clipPath id="SVGID_58_">
						<use xlink:href="#SVGID_57_"  style="overflow:visible;"/>
					</clipPath>
					<g class="st49">
						
							<radialGradient id="SVGID_59_" cx="53.4" cy="114.6" r="11.6819" gradientTransform="matrix(1 0 0 1 0 280)" gradientUnits="userSpaceOnUse">
							<stop  offset="0" style="stop-color:#FFA018"/>
							<stop  offset="1" style="stop-color:#FF9118"/>
						</radialGradient>
						<path class="st50" d="M53.4,382.9c-6.5,0-11.7,5.2-11.7,11.7s5.2,11.7,11.7,11.7s11.7-5.2,11.7-11.7S59.8,382.9,53.4,382.9z
							 M53.4,405.1c-5.8,0-10.5-4.7-10.5-10.5s4.7-10.5,10.5-10.5s10.5,4.7,10.5,10.5S59.2,405.1,53.4,405.1z"/>
						
							<radialGradient id="SVGID_60_" cx="54" cy="114.5825" r="6.1911" gradientTransform="matrix(1 0 0 1 0 280)" gradientUnits="userSpaceOnUse">
							<stop  offset="0" style="stop-color:#FFA018"/>
							<stop  offset="1" style="stop-color:#FF9118"/>
						</radialGradient>
						<path class="st51" d="M56.6,394.2c1-0.5,1.5-1.4,1.5-2.7c0-1.6-1.1-2.6-3.1-2.8v-1.4h-1.4v1.3c-0.1,0-0.1,0-0.2,0v-1.3H52v1.4
							c-1.3,0-2.7,0.1-2.7,0.1h-0.2v1.3l1.2,0.1v9.1l-1.2,0.3v1.1h0.2c0.3,0,1.6,0,2.7,0.1v1.1h1.4v-1l0,0c0.1,0,0.1,0,0.2,0v1H55
							v-1.1c2.5-0.3,3.9-1.6,3.9-3.6C58.9,395.7,58,394.5,56.6,394.2z M52.6,390c0.3-0.1,0.8-0.1,1-0.1h0.1c0.8,0,2.2,0.2,2.2,1.8
							c0,1.4-0.7,2.1-2,2.1h-0.2c-0.3,0-0.8,0-1.1,0V390z M54.2,399.5c-0.6,0-1.2-0.1-1.5-0.2v-4.1c0.4,0,0.8,0,1.2,0l0,0
							c0.1,0,0.3,0,0.4,0c1.5,0,2.3,0.7,2.3,2.1C56.5,398.7,55.6,399.5,54.2,399.5z"/>
					</g>
				</g>
			</g>
			<g>
				<g>
					<defs>
						<rect id="SVGID_61_" width="600" height="400"/>
					</defs>
					<clipPath id="SVGID_62_">
						<use xlink:href="#SVGID_61_"  style="overflow:visible;"/>
					</clipPath>
					<g class="st52">
						
							<radialGradient id="SVGID_63_" cx="430.2803" cy="106.3" r="8.7208" gradientTransform="matrix(1 0 0 1 0 280)" gradientUnits="userSpaceOnUse">
							<stop  offset="0" style="stop-color:#FFA018"/>
							<stop  offset="1" style="stop-color:#FF9118"/>
						</radialGradient>
						<path class="st53" d="M430.3,377.6c-4.8,0-8.7,3.9-8.7,8.7c0,4.8,3.9,8.7,8.7,8.7s8.7-3.9,8.7-8.7S435.1,377.6,430.3,377.6z
							 M430.3,394.1c-4.3,0-7.8-3.5-7.8-7.8s3.5-7.8,7.8-7.8s7.8,3.5,7.8,7.8S434.6,394.1,430.3,394.1z"/>
						
							<radialGradient id="SVGID_64_" cx="430.7389" cy="106.2862" r="4.6213" gradientTransform="matrix(1 0 0 1 0 280)" gradientUnits="userSpaceOnUse">
							<stop  offset="0" style="stop-color:#FFA018"/>
							<stop  offset="1" style="stop-color:#FF9118"/>
						</radialGradient>
						<path class="st54" d="M432.7,386c0.7-0.4,1.1-1.1,1.1-2c0-1.2-0.8-1.9-2.3-2.1v-1h-1v1c0,0-0.1,0-0.2,0v-1h-1v1
							c-1,0-2,0.1-2,0.1h-0.1v1l0.9,0.1v6.8l-0.9,0.2v0.8h0.2c0.2,0,1.2,0,2,0v0.8h1v-0.8l0,0c0.1,0,0.1,0,0.1,0v0.8h1v-0.8
							c1.9-0.2,2.9-1.2,2.9-2.7C434.4,387.1,433.7,386.3,432.7,386z M429.7,382.9c0.2,0,0.6,0,0.8,0h0.1c0.6,0,1.6,0.2,1.6,1.3
							c0,1-0.5,1.5-1.5,1.5h-0.1c-0.3,0-0.6,0-0.8,0L429.7,382.9z M430.9,389.9c-0.4,0-0.9-0.1-1.2-0.1v-3c0.3,0,0.6,0,0.9,0l0,0
							c0.1,0,0.2,0,0.3,0c1.1,0,1.7,0.5,1.7,1.6C432.6,389.4,432,389.9,430.9,389.9z"/>
					</g>
				</g>
			</g>
			<g>
			</g>
			<g>
				<g>
					<defs>
						<rect id="SVGID_65_" width="600" height="400"/>
					</defs>
					<clipPath id="SVGID_66_">
						<use xlink:href="#SVGID_65_"  style="overflow:visible;"/>
					</clipPath>
					<g class="st55">
						
							<radialGradient id="SVGID_67_" cx="90.1553" cy="46.4" r="16.4224" gradientTransform="matrix(1 0 0 1 0 280)" gradientUnits="userSpaceOnUse">
							<stop  offset="0" style="stop-color:#FFA018"/>
							<stop  offset="1" style="stop-color:#FF9118"/>
						</radialGradient>
						<path class="st56" d="M90.2,310c-9.1,0-16.4,7.4-16.4,16.4c0,9.1,7.4,16.4,16.4,16.4c9.1,0,16.4-7.4,16.4-16.4
							C106.6,317.3,99.2,310,90.2,310z M90.2,341.2c-8.1,0-14.7-6.6-14.7-14.7s6.6-14.7,14.7-14.7s14.7,6.6,14.7,14.7
							C104.9,334.6,98.3,341.2,90.2,341.2z"/>
						
							<radialGradient id="SVGID_68_" cx="91.0193" cy="46.4168" r="8.7028" gradientTransform="matrix(1 0 0 1 0 280)" gradientUnits="userSpaceOnUse">
							<stop  offset="0" style="stop-color:#FFA018"/>
							<stop  offset="1" style="stop-color:#FF9118"/>
						</radialGradient>
						<path class="st57" d="M94.7,325.9c1.4-0.7,2.1-2,2.1-3.8c0-2.2-1.6-3.6-4.4-3.9v-1.9h-1.9v1.9c-0.1,0-0.2,0-0.3,0v-1.9h-1.9
							v1.9c-1.8,0-3.8,0.1-3.9,0.1h-0.3v1.8l1.7,0.2v12.8l-1.7,0.4v1.6h0.3c0.4,0,2.2,0.1,3.8,0.1v1.5h1.9v-1.5l0,0
							c0.1,0,0.2,0,0.3,0v1.5h1.9v-1.6c3.6-0.4,5.5-2.2,5.5-5.1C97.9,328,96.6,326.4,94.7,325.9z M89.1,320c0.4-0.1,1.1-0.1,1.4-0.1
							h0.1c1.1,0,3.1,0.3,3.1,2.5c0,1.9-1,2.9-2.8,2.9h-0.3c-0.5,0-1.1,0-1.5,0L89.1,320z M91.3,333.3c-0.8,0-1.7-0.1-2.2-0.3v-5.7
							c0.5-0.1,1.1,0,1.7,0l0,0c0.2,0,0.4,0,0.5,0c2.1,0,3.2,1,3.2,3C94.5,332.2,93.3,333.3,91.3,333.3z"/>
					</g>
				</g>
			</g>
			<g>
				<g>
					<defs>
						<rect id="SVGID_69_" width="600" height="400"/>
					</defs>
					<clipPath id="SVGID_70_">
						<use xlink:href="#SVGID_69_"  style="overflow:visible;"/>
					</clipPath>
					<path class="st58" d="M580.6,108.8H23c-6,0-10.8-4.8-10.8-10.8V-8.6h579.2V98C591.4,103.9,586.6,108.8,580.6,108.8z"/>
				</g>
			</g>
			<g>
				<g>
					<defs>
						<rect id="SVGID_71_" width="600" height="400"/>
					</defs>
					<clipPath id="SVGID_72_">
						<use xlink:href="#SVGID_71_"  style="overflow:visible;"/>
					</clipPath>
					<linearGradient id="SVGID_73_" gradientUnits="userSpaceOnUse" x1="299.1127" y1="119.7258" x2="303.5966" y2="-10.3088">
						<stop  offset="2.793296e-02" style="stop-color:#AF5F15"/>
						<stop  offset="0.2879" style="stop-color:#B26216"/>
						<stop  offset="0.514" style="stop-color:#BD6B19"/>
						<stop  offset="0.7275" style="stop-color:#CF7B1F"/>
						<stop  offset="0.9321" style="stop-color:#E89026"/>
						<stop  offset="1" style="stop-color:#F29929"/>
					</linearGradient>
					<path class="st59" d="M580.6,105.8H23c-6,0-10.8-4.8-10.8-10.8V-11.6h579.2V95C591.4,100.9,586.6,105.8,580.6,105.8z"/>
				</g>
			</g>
			<path class="st60" d="M364.9,109.3c-3.4,0.1-6.7,0.4-10,0.9c-0.4,0.1-0.8,0.1-1.2,0.1c-0.8,0-1.2-0.6-0.8-1.3
				c0.2-0.4,0.5-0.8,0.9-1.1c2.4-1.8,5.1-3,8-3.7c4.3-1.1,8.6-1.3,13-0.6c1.2,0.2,2.4,0.6,3.6,0.9c1.2,0.4,1.7,1.3,1.8,2.5
				c0.2,2,0,4-0.4,6c-0.8,4.8-2.4,9.2-4.9,13.4c-1.1,1.9-2.5,3.6-4.1,5.1c-0.3,0.3-0.6,0.5-1,0.6c-0.3,0.1-0.7,0.1-1-0.1
				c-0.4-0.2-0.4-0.6-0.3-1c0.2-0.6,0.4-1.2,0.6-1.8c1.5-4,2.9-7.9,3.7-12.1c0.3-1.4,0.4-2.8,0.5-4.2c0.1-1.7-0.6-2.6-2.3-3.1
				c-1.7-0.5-3.4-0.6-5.1-0.6C365.5,109.3,365.1,109.3,364.9,109.3z"/>
			<g>
				<!-- <text transform="matrix(1 0 0 1 152.0216 35.1241)" class="st61 st7 st62">This is your last chance to join</text> -->
				<g>
					<g>
						<path class="st60" d="M147.7,46.6c0.7,0.5,0.8,1.1,0.8,1.9c0,4.1,0,8.3,0,12.4c0,0.2,0,0.3,0,0.6c0.2-0.1,0.4-0.2,0.5-0.3
							c3.9-2.2,7.9-2.7,12-1c3,1.2,4.9,3.5,6.2,6.3c1.1,2.4,1.6,5,1.8,7.7c0.2,3.4-0.1,6.8-1.3,10c-1.1,3-2.9,5.5-5.7,7.2
							c-2.9,1.7-6.1,2-9.4,1.3c-1.7-0.4-3.2-1-4.6-2c-0.1-0.1-0.2-0.1-0.3-0.2c-0.1,0.3-0.1,0.5-0.2,0.8c-0.2,0.7-0.6,1.1-1.3,1.1
							c-1.5,0-3,0-4.4,0c-0.9,0-1.5-0.6-1.5-1.5c0-0.1,0-0.3,0-0.4c0-13.9,0-27.9,0-41.8c0-0.8,0.1-1.4,0.8-1.9
							C143.3,46.6,145.5,46.6,147.7,46.6z M148.5,75.9c0,2.4,0,4.7,0,7.1c0,0.2,0.1,0.4,0.2,0.5c1.9,1.3,3.9,2.1,6.3,1.9
							c1.5-0.1,2.8-0.6,3.8-1.8c0.8-1,1.3-2.1,1.5-3.3c0.5-2.4,0.5-4.9,0.2-7.3c-0.1-1.4-0.5-2.8-1.2-4.1c-0.8-1.4-2.1-2.2-3.7-2.4
							c-2.5-0.3-4.7,0.4-6.8,1.7c-0.2,0.2-0.3,0.3-0.3,0.6C148.5,71.2,148.5,73.6,148.5,75.9z"/>
						<path class="st60" d="M306.3,137.4c-11.1-0.1-21.5-1.7-31.7-5c-15.6-5.1-29.1-13.4-40.8-24.8c-0.4-0.4-0.8-0.9-0.8-1.5
							c0-0.8,0.7-1.4,1.5-1.2c0.4,0.1,0.7,0.3,1.1,0.5c6.6,4.1,13.5,7.6,20.7,10.5c7.5,3,15.2,5.4,23.2,7.1
							c5.1,1.1,10.3,1.9,15.5,2.4c5.2,0.5,10.4,0.7,15.6,0.6c8.8-0.2,17.5-1.3,26.1-3.2c9.1-2.1,18-5,26.5-8.9
							c0.6-0.3,1.2-0.4,1.8-0.3c1.5,0.2,2.4,1.8,1.6,3.2c-0.3,0.5-0.7,0.9-1.1,1.3c-4.9,3.9-10.3,7.1-15.9,9.7
							c-7.6,3.5-15.5,6.1-23.6,7.7C319.3,136.7,312.6,137.4,306.3,137.4z"/>
						<path class="st61" d="M393.2,64.2c1.7-0.9,3.2-1.8,4.9-2.5c2.8-1.2,5.8-1.6,8.8-0.9c2,0.4,3.6,1.5,4.7,3.3
							c0,0.1,0.1,0.1,0.1,0.1c1.7-0.8,3.3-1.8,4.9-2.5c2.8-1.2,5.8-1.6,8.8-1c3.4,0.7,5.7,3.2,6.1,6.6c0.1,0.8,0.2,1.6,0.2,2.4
							c0,6.8,0,13.6,0,20.4c0,1.6-0.3,1.9-1.9,1.9c-1.7,0-3.3,0-5,0c-1.5,0-1.8-0.3-1.8-1.8c0-6.2,0-12.4,0-18.6
							c0-0.7-0.1-1.4-0.2-2c-0.4-1.5-1.4-2.3-3-2.4c-2.3-0.1-4.5,0.5-6.6,1.4c-0.1,0-0.2,0.2-0.2,0.3c0,0.1,0,0.3,0,0.4
							c0,6.9,0,13.7,0,20.6c0,1.7-0.3,2-2,2c-1.7,0-3.3,0-5,0c-1.4,0-1.8-0.4-1.8-1.7c0-5.3,0-10.7,0-16c0-1.1,0-2.2,0-3.3
							c0-0.4,0-0.7-0.1-1.1c-0.3-1.6-1.4-2.5-3.1-2.6c-2.4-0.1-4.6,0.5-6.7,1.5c-0.1,0.1-0.2,0.2-0.2,0.4c0,0.1,0,0.2,0,0.4
							c0,6.9,0,13.7,0,20.6c0,1.6-0.3,1.9-1.9,1.9c-1.7,0-3.4,0-5.1,0c-1.4,0-1.7-0.4-1.7-1.8c0-6.9,0-13.7,0-20.6
							c0-2.1,0-4.2,0-6.3c0-0.1,0-0.3,0-0.4c0-1.2,0.4-1.5,1.6-1.5c1.4,0,2.7,0,4.1,0c1,0,1.5,0.4,1.8,1.3
							C392.9,63.3,393,63.8,393.2,64.2z"/>
						<path class="st61" d="M317.7,64.3c1.1-1,2.2-1.8,3.5-2.4c3.6-1.6,7.2-1.9,10.9-0.4c2.9,1.2,4.8,3.5,6,6.4
							c1.2,2.6,1.5,5.4,1.5,8.3c0,3.4-0.5,6.6-2.1,9.6c-1.4,2.8-3.4,5-6.4,6.1c-4.4,1.6-8.5,0.9-12.3-1.8c-0.1-0.1-0.2-0.1-0.3-0.2
							c0,0.2,0,0.4,0,0.5c0,4.1,0,8.2,0,12.3c0,1.5-0.3,1.8-1.8,1.8c-1.7,0-3.4,0-5.1,0c-0.2,0-0.4,0-0.6,0
							c-0.8-0.1-1.1-0.4-1.2-1.3c0-0.2,0-0.4,0-0.6c0-13.1,0-26.1,0-39.2c0-1.5,0.3-1.8,1.8-1.8c1.3,0,2.5,0,3.8,0
							c1.1,0,1.5,0.4,1.8,1.4C317.4,63.3,317.5,63.7,317.7,64.3z M318.5,76.6c0,2.5,0,5,0,7.5c0,0.3,0.1,0.4,0.3,0.6
							c1.8,1,3.7,1.5,5.8,1.4c2.9-0.1,4.7-1.4,5.5-4.2c0.4-1.3,0.6-2.6,0.6-4c0.1-2.3,0-4.6-0.7-6.8c-0.8-2.5-2.5-3.8-4.9-4
							c-2.2-0.2-4.3,0.3-6.2,1.3c-0.3,0.2-0.5,0.4-0.5,0.8C318.5,71.7,318.5,74.1,318.5,76.6z"/>
						<path class="st60" d="M231,75c0-2.1,0.4-5.2,1.8-8.1c2-4.3,5.4-6.8,10.1-7.6c2.8-0.5,5.6-0.3,8.3,0.6c4,1.4,6.6,4.3,8.1,8.2
							c1.2,3.3,1.5,6.7,1.2,10.2c-0.2,2.7-0.8,5.4-2.2,7.8c-2.2,3.8-5.5,6-9.8,6.7c-2.7,0.4-5.3,0.3-7.9-0.6
							c-4.1-1.3-6.7-4.2-8.2-8.1C231.4,81.6,231,78.8,231,75z M239.4,76.1c0,0-0.1,0-0.1,0c0.2,1.5,0.3,3,0.5,4.4
							c0.2,1.3,0.8,2.5,1.7,3.5c1.3,1.5,3,1.8,4.9,1.7c1.7-0.1,3.1-0.7,4.1-2.1c0.6-0.9,1-1.8,1.3-2.9c0.5-1.9,0.5-3.8,0.5-5.7
							c-0.1-1.7-0.2-3.3-0.9-4.9c-0.7-1.6-1.7-2.8-3.4-3.3c-1.4-0.4-2.9-0.4-4.3,0c-1.8,0.5-2.8,1.8-3.4,3.5
							C239.5,72.2,239.4,74.1,239.4,76.1z"/>
						<path class="st60" d="M285.9,62.1c1.2-0.6,2.3-1.2,3.4-1.7c2.7-1.1,5.5-1.6,8.5-1.2c4.2,0.6,6.8,3,7.5,7.1
							c0.2,0.9,0.3,1.9,0.3,2.8c0,7.1,0,14.1,0,21.2c0,1.3-0.5,1.8-1.8,1.8c-1.5,0-3,0-4.6,0c-1.3,0-1.8-0.5-1.8-1.8
							c0-6.5,0-12.9,0-19.4c0-0.6-0.1-1.3-0.2-1.9c-0.3-1.7-1.3-2.5-3-2.6c-2.5-0.1-4.7,0.6-6.9,1.8c-0.6,0.3-0.8,0.7-0.8,1.4
							c0,6.9,0,13.8,0,20.7c0,0.4,0,0.8-0.2,1.1c-0.3,0.6-0.8,0.8-1.4,0.8c-1.7,0-3.4,0-5.1,0c-0.9,0-1.5-0.6-1.6-1.5
							c0-0.1,0-0.2,0-0.3c0-9.5,0-19,0-28.5c0-0.4,0.1-0.8,0.2-1.1c0.3-0.6,0.8-0.8,1.4-0.8c1.4,0,2.9,0,4.3,0
							c0.8,0,1.3,0.3,1.4,1.2C285.7,61.5,285.8,61.8,285.9,62.1z"/>
						<path class="st61" d="M444.6,78.9c-0.2,3.7,2.3,6.7,5.9,7.2c2.8,0.4,5.6,0.2,8.4-0.5c0.6-0.1,1.2-0.3,1.9-0.5
							c1.1-0.3,1.6,0.1,1.6,1.2c0,1,0,2,0,3c0,0.9-0.4,1.5-1.2,1.8c-2.2,0.9-4.6,1.4-6.9,1.6c-2.3,0.2-4.7,0.2-6.9-0.4
							c-5.5-1.2-8.9-4.6-10.1-10.1c-1-4.2-0.9-8.5,0.6-12.6c1.9-5.1,5.6-8.1,10.9-9c2.8-0.5,5.7-0.4,8.4,0.6
							c3.5,1.2,5.7,3.5,6.3,7.2c0.4,2.7,0.1,5.2-1.7,7.3c-1.3,1.5-3.1,2.4-5,2.9c-4,1-7.9,1-11.9,0.2
							C444.8,78.9,444.7,78.9,444.6,78.9z M444.7,73.6c0.6,0.1,1.2,0.2,1.7,0.3c1,0.1,2,0.2,2.9,0.2c1.2,0,2.5-0.1,3.7-0.4
							c1.5-0.3,2.4-1.2,2.6-2.8c0.2-2.1-0.5-3.9-3.1-4.2c-0.7-0.1-1.4-0.1-2.1-0.1c-1.5,0.1-2.9,0.7-3.9,1.9
							C445.4,70,444.9,71.7,444.7,73.6z"/>
						<path class="st60" d="M188.6,67.3c-1.1,0-2.2,0-3.2,0c-1.3,0-1.9-0.5-1.9-1.8c0-1,0-2,0-3c0-1.1,0.3-1.5,1.4-1.6
							c1.2-0.2,2.4-0.3,3.5-0.5c0.4,0,0.5-0.2,0.5-0.5c0.2-2.3,0.4-4.5,0.7-6.8c0.1-1,0.5-1.3,1.5-1.3c1.4,0,2.7,0,4.1,0
							c1.1,0,1.7,0.6,1.7,1.7c0,2,0,4,0,6c0,0.2,0,0.3,0,0.6c0.2,0,0.4,0,0.5,0c2,0,4,0,5.9,0c1.3,0,1.8,0.5,1.8,1.8
							c0,1.3,0,2.5,0,3.8c0,1.1-0.6,1.7-1.7,1.7c-2,0-4,0-6,0c-0.2,0-0.4,0-0.6,0c0,0.2,0,0.3,0,0.5c0,5,0,10.1,0,15.1
							c0,0.1,0,0.3,0,0.4c0.1,1.4,0.5,1.8,1.9,1.9c1.6,0.1,3.2,0,4.7-0.5c0.9-0.2,1.9,0.4,1.9,1.4c0,1.3,0,2.7,0,4
							c0,0.6-0.3,1.1-0.9,1.3c-3.2,1.2-6.5,1.6-9.9,0.8c-3-0.8-4.9-2.7-5.6-5.8c-0.3-1.2-0.4-2.4-0.4-3.6c0-5,0-10,0-15
							C188.6,67.7,188.6,67.5,188.6,67.3z"/>
						<path class="st60" d="M214.8,76.2c0.2,1.5,0.2,3.1,0.6,4.5c0.8,3.1,2.7,4.5,5.9,4.7c2.2,0.1,4.4-0.2,6.5-0.9
							c0.3-0.1,0.7-0.2,1-0.2c0.8,0,1.3,0.6,1.3,1.5c0,1.3,0,2.6,0,3.9c0,0.6-0.3,1.1-0.9,1.4c-2.2,1.1-4.5,1.6-6.9,1.8
							c-2.7,0.1-5.3-0.2-7.8-1.3c-3.6-1.6-5.8-4.4-6.9-8c-1.5-4.7-1.5-9.6-0.1-14.3c1.6-5.2,5-8.4,10.4-9.5
							c3.9-0.8,7.6-0.3,11.2,1.3c0.6,0.3,0.9,0.7,0.9,1.3c0,1.3,0,2.6,0,3.9c0,0.9-0.9,1.8-1.9,1.4c-1.7-0.6-3.5-0.9-5.4-0.9
							c-1.4,0-2.8,0.1-4.1,0.7c-1.1,0.5-1.9,1.3-2.5,2.4c-0.6,1.3-0.9,2.6-1,4c-0.1,0.8-0.1,1.5-0.1,2.3
							C214.9,76.2,214.8,76.2,214.8,76.2z"/>
						<path class="st61" d="M353.7,65.9c0.9-0.8,1.8-1.7,2.7-2.4c2.2-1.8,4.7-2.5,7.5-2.3c0.8,0.1,1.2,0.4,1.2,1.3
							c0,1.8,0,3.6,0,5.4c0,0.9-0.4,1.3-1.3,1.3c-0.8,0-1.7-0.1-2.5-0.1c-2.3,0-4.5,0.4-6.6,1.2c-0.3,0.1-0.4,0.3-0.4,0.6
							c0,6.4,0,12.8,0,19.2c0,1.7-0.3,2-2,2c-1.7,0-3.3,0-5,0c-0.3,0-0.5,0-0.8-0.1c-0.5-0.1-0.8-0.4-0.9-0.9c0-0.3-0.1-0.6-0.1-0.8
							c0-9,0-17.9,0-26.9c0-1.5,0.3-1.8,1.8-1.8c1.3,0,2.5,0,3.8,0c1.1,0,1.6,0.4,1.9,1.5C353.2,63.9,353.4,64.8,353.7,65.9
							C353.6,65.8,353.7,65.9,353.7,65.9z"/>
						<path class="st61" d="M377.9,76.7c0,4.5,0,9,0,13.5c0,1.6-0.3,1.8-1.9,1.8c-1.7,0-3.4,0-5.1,0c-0.3,0-0.6,0-0.8-0.1
							c-0.4-0.1-0.7-0.4-0.8-0.8c-0.1-0.3-0.1-0.5-0.1-0.8c0-9.1,0-18.2,0-27.2c0-0.2,0-0.5,0.1-0.7c0.1-0.5,0.4-0.8,0.9-0.9
							c0.2,0,0.5-0.1,0.8-0.1c1.8,0,3.5,0,5.3,0c1.4,0,1.7,0.3,1.7,1.7C377.9,67.6,377.9,72.1,377.9,76.7z"/>
						<path class="st60" d="M264.6,76.1c0-4.8,0-9.5,0-14.3c0-1.2,0.6-1.8,1.8-1.8c1.6,0,3.1,0,4.7,0c1.2,0,1.7,0.6,1.7,1.7
							c0,9.6,0,19.2,0,28.8c0,1.2-0.6,1.7-1.8,1.7c-1.6,0-3.2,0-4.7,0c-1.2,0-1.7-0.6-1.7-1.7C264.6,85.7,264.6,80.9,264.6,76.1z"/>
						<path class="st60" d="M181.4,76.1c0,4.8,0,9.6,0,14.4c0,1.3-0.5,1.8-1.8,1.8c-1.6,0-3.1,0-4.7,0c-1.2,0-1.8-0.6-1.8-1.8
							c0-9.6,0-19.1,0-28.7c0-1.2,0.6-1.7,1.8-1.7c1.6,0,3.2,0,4.7,0c1.1,0,1.7,0.6,1.7,1.7C181.4,66.5,181.4,71.3,181.4,76.1z"/>
						<path class="st60" d="M177.2,57.6c-2.8,0-5-2.2-5-5c0-2.8,2.2-5,5-5c2.8,0,5,2.2,5,5C182.2,55.4,180,57.6,177.2,57.6z"/>
						<path class="st61" d="M373.6,56.7c-1.6,0-3-0.4-4-1.7c-1.2-1.5-1.3-3.2-0.7-4.9c0.6-1.6,1.9-2.4,3.6-2.7
							c0.9-0.2,1.9-0.1,2.8,0.1c2.1,0.6,3.4,2.3,3.3,4.6C378.4,55,376.6,56.7,373.6,56.7z"/>
						<path class="st60" d="M264,52.6c0.1-3.1,2-4.8,4.9-4.8c3,0,4.9,2.1,4.7,5.1c-0.1,2.8-2,4.7-5.1,4.6
							C265.7,57.4,264,55.4,264,52.6z"/>
					</g>
					<g>
						<g>
							<g>
								<path class="st3" d="M179.4,53c-0.1-0.2-0.3-0.4-0.6-0.5c0.2-0.1,0.4-0.2,0.5-0.3c0.1-0.2,0.2-0.3,0.2-0.5
									c0-0.2,0-0.4-0.1-0.5c-0.1-0.2-0.2-0.3-0.3-0.4c-0.1-0.1-0.3-0.2-0.4-0.2c-0.1,0-0.3-0.1-0.5-0.1l0.1-0.6l-0.7-0.1l-0.1,0.6
									l-0.4-0.1l0,0l0.1-0.6l-0.7-0.1l-0.1,0.6l-0.1,0l-0.7-0.1l-0.1,0.7l0.7,0.1l-0.4,2.9l-0.7-0.1l-0.1,0.7l0.7,0.1l0.1,0
									l-0.1,0.6l0.7,0.1l0.1-0.6l0,0l0.4,0.1l-0.1,0.6l0.7,0.1l0.1-0.6c0.3,0,0.4,0,0.5,0c0.2,0,0.4,0,0.6-0.1
									c0.2-0.1,0.3-0.2,0.4-0.4c0.1-0.2,0.2-0.4,0.2-0.6C179.6,53.5,179.5,53.2,179.4,53z M177.6,51c0.4,0.1,0.7,0.1,0.8,0.1
									c0.1,0,0.2,0.1,0.3,0.2c0.1,0.1,0.1,0.2,0.1,0.3c0,0.1-0.1,0.3-0.2,0.3c-0.1,0.1-0.2,0.1-0.4,0.1c-0.1,0-0.3,0-0.6-0.1
									l-0.6-0.1l0.1-1L177.6,51z M178.4,53.9c-0.1,0.1-0.2,0.1-0.3,0.1c-0.1,0-0.3,0-0.6-0.1l-0.8-0.1l0.2-1.2l0.7,0.1
									c0.4,0.1,0.7,0.1,0.8,0.2c0.1,0.1,0.2,0.1,0.3,0.2c0.1,0.1,0.1,0.2,0.1,0.3C178.6,53.7,178.5,53.8,178.4,53.9z"/>
							</g>
						</g>
					</g>
				</g>
			</g>
		</g>
	</g>
</g>
<g>
	<text x="50%" y="4%" dominant-baseline="middle" text-anchor="middle" class="st3 st63 st64" id="header-id"></text>
	<text x="50%" y="9%" dominant-baseline="middle" text-anchor="middle" class="st3 st63 st64" id="paragraph-id"></text>
</g>
</svg>
